<svg width="89" height="54" viewBox="0 0 89 54" fill="none" xmlns="http://www.w3.org/2000/svg">
<path d="M75.854 0.250977C74.5523 0.250977 73.3105 0.401986 72.1238 0.757997C70.9408 1.11401 69.9318 1.61843 69.0455 2.30079C68.1592 2.95348 67.45 3.77787 66.916 4.72723C66.382 5.67289 66.112 6.77326 66.112 8.01559C66.112 9.5546 66.6143 11.0018 67.5896 12.3035C68.5649 13.6348 70.1646 14.6452 72.3266 15.3239L76.6145 16.6566C78.0645 17.1313 79.0719 17.6284 79.6059 18.1921C80.1399 18.7558 80.4026 19.4329 80.4026 20.2636C80.4026 21.4763 79.8721 22.425 78.8671 23.0739C77.8621 23.7266 76.4046 24.0517 74.5429 24.0517C73.3599 24.0517 72.2058 23.9342 71.0228 23.6968C69.8695 23.4595 68.7684 23.1024 67.7634 22.6611C67.4667 22.5424 67.2026 22.4234 67.0246 22.3641C66.8466 22.3048 66.6666 22.2772 66.4886 22.2772C66.0436 22.2772 65.8078 22.5705 65.8078 23.1898V24.7036C65.8078 24.9706 65.8702 25.266 65.9889 25.5293C66.1113 25.8074 66.4378 26.0953 66.9088 26.3623C67.6801 26.8073 68.8333 27.1941 70.313 27.5501C71.7927 27.9061 73.3299 28.0861 74.8689 28.0861C76.3783 28.0861 77.7675 27.8713 79.0989 27.456C80.3709 27.0703 81.4713 26.5462 82.3873 25.8045C83.3032 25.0925 84.0117 24.202 84.5457 23.1971C85.05 22.1921 85.3207 21.0358 85.3207 19.7638C85.3207 18.2248 84.875 16.8335 83.959 15.6208C83.043 14.4081 81.4992 13.4601 79.3669 12.7815L75.1659 11.4488C73.5972 10.9445 72.5071 10.3828 71.9138 9.81913C71.3204 9.25544 71.0229 8.54932 71.0229 7.71862C71.0229 6.50596 71.4976 5.64938 72.4135 5.0894C73.3295 4.52572 74.6664 4.25644 76.3538 4.25644C78.4565 4.25644 80.3522 4.64769 82.0396 5.41534C82.5439 5.65268 82.9249 5.77024 83.1622 5.77024C83.6073 5.77024 83.8431 5.4407 83.8431 4.82139V3.42349C83.8431 3.00814 83.7531 2.68654 83.5751 2.45291C83.3971 2.1859 83.1031 1.94422 82.6914 1.70688C82.3948 1.52887 81.9832 1.3489 81.4529 1.1709C80.9189 0.992891 80.3586 0.848446 79.7652 0.700108C79.1422 0.581437 78.5209 0.463176 77.8386 0.374173C77.1859 0.28517 76.5067 0.250977 75.854 0.250977ZM14.8093 0.316171C13.1813 0.316171 11.6382 0.495438 10.1882 0.881117C8.73453 1.23342 7.49271 1.67981 6.45805 2.21386C6.04271 2.42154 5.78067 2.62558 5.63233 2.82954C5.48399 3.03721 5.42228 3.39786 5.42228 3.87254V5.32118C5.42228 5.9442 5.62984 6.23379 6.04519 6.23379C6.16386 6.23379 6.31558 6.2062 6.52325 6.14687C6.72721 6.08753 7.07707 5.97064 7.55175 5.76297C8.58641 5.34762 9.65919 5.02673 10.7532 4.76343C11.8472 4.49642 12.9127 4.3723 13.9474 4.3723C16.2281 4.3723 17.8256 4.81802 18.7713 5.734C19.6873 6.64999 20.162 8.21993 20.162 10.471V12.6366C18.979 12.3696 17.8554 12.1259 16.7577 11.9775C15.6637 11.8292 14.6264 11.7457 13.6215 11.7457C10.5731 11.7457 8.17715 12.5173 6.37113 14.0563C4.56882 15.5953 3.67671 17.6334 3.67671 20.1477C3.67671 22.5174 4.4141 24.4095 5.86411 25.8335C7.31411 27.2539 9.30429 27.9702 11.789 27.9702C15.2823 27.9702 18.1775 26.6036 20.4879 23.8779C20.8142 24.5602 21.1148 25.1264 21.4078 25.6307C21.7044 26.1054 22.0609 26.5764 22.4725 27.0214C22.7692 27.2884 23.0632 27.4343 23.3562 27.4343C23.5935 27.4343 23.8641 27.3443 24.1311 27.1663L25.9926 25.9277C26.3783 25.631 26.5576 25.3298 26.5576 25.0368C26.5576 24.8291 26.4958 24.5933 26.3475 24.3559C25.9322 23.5846 25.6395 22.8792 25.4059 22.2265C25.1982 21.5738 25.08 20.684 25.08 19.59H25.0148V9.99291C25.0148 6.73688 24.1911 4.31196 22.5594 2.71361C20.9054 1.11898 18.3323 0.316171 14.8093 0.316171ZM28.5712 1.02597C28.0965 1.02597 27.8613 1.29732 27.8613 1.772C27.8613 1.97967 27.9513 2.36298 28.1293 2.95263L35.0827 25.8335C35.2607 26.3972 35.4683 26.8072 35.7056 26.9852C35.943 27.1928 36.298 27.2821 36.8283 27.2821H39.3706C39.9046 27.2821 40.3211 27.1928 40.5585 26.9852C40.7958 26.7775 40.9751 26.3942 41.1234 25.8045L45.6793 6.74078L50.2642 25.8335C50.3828 26.4269 50.5918 26.8137 50.8291 27.0214C51.0664 27.2291 51.4498 27.3184 52.0097 27.3184H54.5593C55.0636 27.3184 55.4446 27.1994 55.682 27.0214C55.9193 26.8434 56.1269 26.4522 56.3049 25.8625L63.4393 2.98162C63.558 2.65528 63.6125 2.42083 63.6421 2.24283C63.6718 2.06482 63.7073 1.91311 63.7073 1.76477C63.7073 1.26042 63.436 1.02597 62.9613 1.02597H60.2089C59.6749 1.02597 59.2946 1.14494 59.0572 1.32294C58.8496 1.50095 58.6413 1.88496 58.4633 2.47461L53.3424 22.3062L48.6634 2.47461C48.5447 1.91092 48.343 1.50095 48.1057 1.32294C47.8684 1.11527 47.4778 1.02597 46.9178 1.02597H44.5494C44.0153 1.02597 43.6061 1.14494 43.3687 1.32294C43.1314 1.50095 42.9521 1.88496 42.8038 2.47461L38.1972 22.0744L33.2212 2.48187C33.0432 1.91819 32.8646 1.50099 32.6272 1.32298C32.4196 1.11531 32.0355 1.02601 31.4756 1.02601L28.5712 1.02597ZM14.7224 15.2659C15.6384 15.2659 16.5581 15.3283 17.5037 15.447C18.4494 15.5656 19.3632 15.7391 20.2199 15.9468V17.1926C20.2199 18.1976 20.1009 19.0556 19.9229 19.7639C19.7449 20.4759 19.3943 21.0979 18.9234 21.6616C18.1223 22.5479 17.1774 23.196 16.1131 23.552C15.0487 23.908 14.039 24.088 13.0637 24.088C11.7027 24.088 10.6647 23.7323 9.95643 22.9943C9.21474 22.2823 8.86273 21.2487 8.86273 19.858C8.86273 18.3784 9.33604 17.2548 10.3114 16.4538C11.2867 15.6528 12.7384 15.2659 14.7224 15.2659ZM82.4597 33.4388C79.3441 33.4828 75.6657 34.1788 72.8843 36.1332C72.0277 36.7562 72.174 37.5846 73.1233 37.4659C76.2904 37.0803 83.2816 36.2514 84.524 37.8498C85.7663 39.4185 83.1284 46.0238 81.9454 48.9534C81.5894 49.8398 82.365 50.1898 83.1623 49.5112C88.369 45.1315 89.7241 35.9869 88.6598 34.6556C88.1276 34.0048 85.5752 33.3947 82.4597 33.4388ZM0.649091 35.2061C-0.00296732 35.2865 -0.294192 36.0779 0.395581 36.6981C11.9993 47.1782 27.364 53.4803 44.4118 53.4803C56.5792 53.4803 70.7222 49.6616 80.4606 42.4709C82.0589 41.2842 80.6689 39.4766 79.0409 40.2183C68.1195 44.8353 56.254 47.092 45.4475 47.092C29.4344 47.092 13.9518 42.6778 1.40239 35.3944C1.12889 35.2312 0.866406 35.1792 0.649091 35.2061Z" fill="white"/>
</svg>
