<svg width="109" height="96" viewBox="0 0 109 96" fill="none" xmlns="http://www.w3.org/2000/svg">
<path d="M85.8559 21C84.5542 21 83.3125 21.151 82.1258 21.507C80.9428 21.863 79.9338 22.3675 79.0475 23.0498C78.1612 23.7025 77.452 24.5269 76.918 25.4763C76.384 26.4219 76.114 27.5223 76.114 28.7646C76.114 30.3036 76.6163 31.7508 77.5916 33.0525C78.5669 34.3838 80.1666 35.3942 82.3286 36.0729L86.6165 37.4056C88.0665 37.8803 89.0739 38.3774 89.6079 38.9411C90.1419 39.5048 90.4046 40.1819 90.4046 41.0126C90.4046 42.2253 89.8741 43.174 88.8691 43.8229C87.8641 44.4756 86.4066 44.8007 84.5449 44.8007C83.3619 44.8007 82.2077 44.6832 81.0247 44.4458C79.8714 44.2085 78.7704 43.8514 77.7654 43.4101C77.4687 43.2914 77.2046 43.1724 77.0266 43.1131C76.8486 43.0538 76.6686 43.0262 76.4906 43.0262C76.0456 43.0262 75.8098 43.3195 75.8098 43.9388V45.4526C75.8098 45.7196 75.8722 46.015 75.9909 46.2783C76.1133 46.5564 76.4398 46.8443 76.9108 47.1113C77.6821 47.5563 78.8353 47.9431 80.315 48.2991C81.7947 48.6551 83.3318 48.8351 84.8708 48.8351C86.3802 48.8351 87.7695 48.6203 89.1009 48.205C90.3729 47.8193 91.4733 47.2952 92.3893 46.5535C93.3052 45.8415 94.0137 44.951 94.5477 43.9461C95.052 42.9411 95.3227 41.7848 95.3227 40.5128C95.3227 38.9738 94.877 37.5825 93.961 36.3698C93.045 35.1571 91.5012 34.2091 89.3689 33.5305L85.1679 32.1978C83.5992 31.6935 82.5091 31.1318 81.9158 30.5682C81.3224 30.0045 81.0249 29.2983 81.0249 28.4676C81.0249 27.255 81.4996 26.3984 82.4155 25.8384C83.3315 25.2747 84.6684 25.0055 86.3558 25.0055C88.4585 25.0055 90.3541 25.3967 92.0415 26.1644C92.5458 26.4017 92.9269 26.5193 93.1642 26.5193C93.6093 26.5193 93.8451 26.1897 93.8451 25.5704V24.1725C93.8451 23.7572 93.7551 23.4356 93.5771 23.2019C93.3991 22.9349 93.1051 22.6932 92.6934 22.4559C92.3968 22.2779 91.9852 22.0979 91.4549 21.9199C90.9209 21.7419 90.3606 21.5975 89.7672 21.4491C89.1442 21.3305 88.5229 21.2122 87.8406 21.1232C87.1879 21.0342 86.5086 21 85.8559 21ZM24.8113 21.0652C23.1833 21.0652 21.6402 21.2445 20.1902 21.6301C18.7365 21.9824 17.4947 22.4288 16.46 22.9629C16.0447 23.1706 15.7826 23.3746 15.6343 23.5786C15.4859 23.7862 15.4242 24.1469 15.4242 24.6216V26.0702C15.4242 26.6932 15.6318 26.9828 16.0471 26.9828C16.1658 26.9828 16.3175 26.9552 16.5252 26.8959C16.7292 26.8366 17.079 26.7197 17.5537 26.512C18.5884 26.0966 19.6611 25.7758 20.7552 25.5125C21.8492 25.2454 22.9147 25.1213 23.9494 25.1213C26.2301 25.1213 27.8276 25.567 28.7733 26.483C29.6893 27.399 30.164 28.969 30.164 31.22V33.3856C28.981 33.1186 27.8574 32.8749 26.7597 32.7265C25.6657 32.5782 24.6284 32.4947 23.6235 32.4947C20.5751 32.4947 18.1791 33.2663 16.3731 34.8053C14.5708 36.3443 13.6787 38.3824 13.6787 40.8967C13.6787 43.2664 14.4161 45.1585 15.8661 46.5825C17.3161 48.0029 19.3062 48.7192 21.791 48.7192C25.2843 48.7192 28.1795 47.3526 30.4899 44.6269C30.8162 45.3092 31.1168 45.8754 31.4098 46.3797C31.7064 46.8544 32.0629 47.3254 32.4745 47.7704C32.7712 48.0374 33.0652 48.1833 33.3582 48.1833C33.5955 48.1833 33.8661 48.0933 34.1331 47.9153L35.9946 46.6767C36.3803 46.38 36.5596 46.0788 36.5596 45.7858C36.5596 45.5781 36.4978 45.3423 36.3495 45.1049C35.9342 44.3336 35.6415 43.6282 35.4079 42.9755C35.2002 42.3228 35.082 41.433 35.082 40.339H35.0168V30.7419C35.0168 27.4859 34.1931 25.061 32.5614 23.4626C30.9074 21.868 28.3343 21.0652 24.8113 21.0652ZM38.5732 21.775C38.0985 21.775 37.8633 22.0463 37.8633 22.521C37.8633 22.7287 37.9533 23.112 38.1313 23.7017L45.0847 46.5825C45.2627 47.1462 45.4703 47.5562 45.7076 47.7342C45.945 47.9418 46.3 48.0311 46.8303 48.0311H49.3726C49.9066 48.0311 50.3231 47.9418 50.5605 47.7342C50.7978 47.5265 50.9771 47.1432 51.1254 46.5535L55.6813 27.4898L60.2662 46.5825C60.3848 47.1759 60.5938 47.5627 60.8311 47.7704C61.0684 47.9781 61.4518 48.0674 62.0117 48.0674H64.5613C65.0656 48.0674 65.4466 47.9484 65.684 47.7704C65.9213 47.5924 66.1289 47.2012 66.3069 46.6115L73.4413 23.7306C73.56 23.4043 73.6145 23.1699 73.6441 22.9919C73.6738 22.8138 73.7093 22.6621 73.7093 22.5138C73.7093 22.0094 73.438 21.775 72.9633 21.775H70.2109C69.6769 21.775 69.2966 21.894 69.0592 22.072C68.8516 22.25 68.6433 22.634 68.4653 23.2236L63.3444 43.0552L58.6654 23.2236C58.5467 22.6599 58.345 22.25 58.1077 22.072C57.8704 21.8643 57.4798 21.775 56.9198 21.775H54.5514C54.0173 21.775 53.6081 21.894 53.3707 22.072C53.1334 22.25 52.9541 22.634 52.8058 23.2236L48.1992 42.8234L43.2232 23.2309C43.0452 22.6672 42.8666 22.25 42.6292 22.072C42.4216 21.8643 42.0375 21.775 41.4776 21.775L38.5732 21.775ZM24.7244 36.0149C25.6404 36.0149 26.5601 36.0773 27.5057 36.196C28.4514 36.3146 29.3652 36.4881 30.2219 36.6958V37.9416C30.2219 38.9466 30.1029 39.8046 29.9249 40.5129C29.7469 41.2249 29.3963 41.8469 28.9254 42.4106C28.1243 43.2969 27.1794 43.945 26.1151 44.301C25.0507 44.657 24.041 44.837 23.0657 44.837C21.7047 44.837 20.6667 44.4813 19.9584 43.7433C19.2167 43.0313 18.8647 41.9977 18.8647 40.607C18.8647 39.1274 19.338 38.0038 20.3134 37.2028C21.2887 36.4018 22.7404 36.0149 24.7244 36.0149ZM92.4617 54.1878C89.3461 54.2318 85.6677 54.9278 82.8863 56.8822C82.0297 57.5052 82.176 58.3336 83.1253 58.2149C86.2924 57.8293 93.2836 57.0004 94.526 58.5988C95.7683 60.1675 93.1303 66.7728 91.9473 69.7024C91.5913 70.5888 92.367 70.9388 93.1643 70.2602C98.371 65.8805 99.7261 56.7359 98.6618 55.4046C98.1296 54.7538 95.5772 54.1437 92.4617 54.1878ZM10.651 55.9551C9.99899 56.0355 9.70776 56.8269 10.3975 57.4471C22.0013 67.9272 37.366 74.2293 54.4138 74.2293C66.5812 74.2293 80.7242 70.4106 90.4626 63.2199C92.0609 62.0332 90.6709 60.2256 89.0429 60.9673C78.1215 65.5843 66.256 67.841 55.4495 67.841C39.4364 67.841 23.9538 63.4268 11.4043 56.1434C11.1308 55.9802 10.8684 55.9282 10.651 55.9551Z" fill="white"/>
</svg>
