<svg width="16" height="16" viewBox="0 0 16 16" fill="none" xmlns="http://www.w3.org/2000/svg">
<g clip-path="url(#clip0_335_61)">
<path d="M12.5188 10.0376L10.9313 9.85635C10.7446 9.83442 10.5554 9.85509 10.3779 9.91679C10.2003 9.9785 10.0391 10.0796 9.90628 10.2126L8.75628 11.3626C6.98202 10.4602 5.53989 9.0181 4.63753 7.24385L5.79378 6.0876C6.06253 5.81885 6.19378 5.44385 6.15003 5.0626L5.96878 3.4876C5.93334 3.18271 5.78702 2.9015 5.55767 2.6975C5.32833 2.49351 5.03197 2.38098 4.72503 2.38135H3.64378C2.93753 2.38135 2.35003 2.96885 2.39378 3.6751C2.72503 9.0126 6.99378 13.2751 12.325 13.6063C13.0313 13.6501 13.6188 13.0626 13.6188 12.3563V11.2751C13.625 10.6438 13.15 10.1126 12.5188 10.0376Z" fill="#9E4CC9"/>
</g>
<defs>
<clipPath id="clip0_335_61">
<rect width="15" height="15" fill="white" transform="translate(0.5 0.5)"/>
</clipPath>
</defs>
</svg>
