<svg width="12" height="12" viewBox="0 0 12 12" fill="none" xmlns="http://www.w3.org/2000/svg">
<path d="M11.7402 8.61328L9.08789 7.44141C8.80078 7.32422 8.47266 7.36328 8.21484 7.5625L7.07227 8.41992C5.29688 7.60547 3.89453 6.20312 3.08008 4.42773L3.9375 3.28516C4.13672 3.02734 4.17578 2.69922 4.05859 2.41211L2.88672 0.259766C2.75391 -0.0859375 2.38672 -0.0859375 2.10938 0.0898438L0.322266 1.05859C0.0644531 1.19141 -0.0527344 1.48828 0.0253906 1.76562C0.732422 4.54297 2.32031 7.01172 4.49219 8.82422C6.66406 10.6367 9.32617 11.7598 12.2324 11.9746C12.5293 12 12.7871 11.7988 12.8457 11.502L13.0996 9.63672C13.1387 9.32031 12.0859 8.83984 11.7402 8.61328Z" fill="#00D1FF"/>
</svg>