<svg width="30" height="30" viewBox="0 0 30 30" fill="none" xmlns="http://www.w3.org/2000/svg">
<g clip-path="url(#clip0_335_426)">
<path d="M18.9023 25.3828H11.0977C10.1543 25.3828 9.38672 26.1504 9.38672 27.0937V28.9453C9.38672 29.5312 9.86719 30.0059 10.4473 30.0059H19.541C20.127 30.0059 20.6016 29.5312 20.6016 28.9453V27.0937C20.6074 26.1445 19.8398 25.3828 18.9023 25.3828ZM14.1387 16.752C14.1387 17.2266 14.5254 17.6133 15 17.6133C15.4746 17.6133 15.8613 17.2266 15.8613 16.752C15.8613 16.2832 15.4805 15.8848 14.9941 15.8848C14.5195 15.8906 14.1387 16.2773 14.1387 16.752Z" fill="#CD3A8C"/>
<path d="M15.4102 7.48824C15.3809 7.44722 15.3164 7.4648 15.3164 7.51753V15.2988C15.9844 15.4453 16.4941 16.0371 16.4941 16.7578C16.4941 17.5781 15.8262 18.2402 15.0059 18.2402C14.2441 18.2402 13.6465 17.6835 13.5352 16.998C13.4063 16.1777 13.9453 15.457 14.6895 15.2988V7.51753C14.6895 7.4648 14.6191 7.44722 14.5957 7.48824L7.95704 17.7539C7.47657 18.498 7.65821 19.5058 8.36719 20.0449C10.1074 21.3574 11.1738 22.9043 11.6133 24.7558H18.3867C18.8262 22.9043 19.8926 21.3574 21.6328 20.0449C22.3477 19.5058 22.5293 18.498 22.043 17.7539L15.4102 7.48824Z" fill="#CD3A8C"/>
<path d="M27.9023 13.0723C27.0703 8.20899 23.5547 4.25391 18.9375 2.79492C21.2695 2.80078 23.5605 2.80664 25.5879 2.80664C25.752 3.87305 26.6719 4.6875 27.7793 4.6875C29.0039 4.6875 30 3.69141 30 2.4668C30 1.24219 29.0039 0.246094 27.7793 0.246094C26.6543 0.246094 25.7227 1.08984 25.582 2.17969C23.6602 2.17383 20.6895 2.16797 17.502 2.16211V1.27734C17.502 0.574219 16.9336 0 16.2305 0H13.7695C13.0664 0 12.4922 0.574219 12.4922 1.27734V2.16211C8.39648 2.15625 5.91797 2.15625 4.40625 2.16211C4.25977 1.08398 3.33398 0.251953 2.2207 0.251953C0.996094 0.251953 0 1.24805 0 2.4668C0 3.69141 0.996094 4.6875 2.2207 4.6875C3.33398 4.6875 4.25977 3.86133 4.41211 2.78906C6.01758 2.7832 8.39062 2.7832 11.0918 2.7832C6.46289 4.23633 2.92969 8.19727 2.09766 13.0723C0.925781 13.1367 0 14.1035 0 15.2871C0 16.5117 0.996094 17.5078 2.2207 17.5078C3.44531 17.5078 4.44141 16.5117 4.44141 15.2871C4.44141 14.2383 3.70898 13.3594 2.72461 13.1309C3.60938 8.09766 7.51172 4.08984 12.498 3.07031V3.73242C12.498 4.43555 13.0723 5.00977 13.7754 5.00977H16.2305C16.9336 5.00977 17.5078 4.43555 17.5078 3.73242V3.06445C22.4941 4.08398 26.4023 8.0918 27.2812 13.125C26.3027 13.3535 25.5645 14.2324 25.5645 15.2812C25.5645 16.5059 26.5605 17.502 27.7852 17.502C29.0098 17.502 30.0059 16.5059 30.0059 15.2812C30 14.1035 29.0742 13.1367 27.9023 13.0723Z" fill="#CD3A8C"/>
</g>
<defs>
<clipPath id="clip0_335_426">
<rect width="30" height="30" fill="white"/>
</clipPath>
</defs>
</svg>
