<svg width="30" height="30" viewBox="0 0 30 30" fill="none" xmlns="http://www.w3.org/2000/svg">
<path d="M13.0232 18.2862C12.4375 16.5003 12.0109 14.6571 12.2051 13.5302C12.2051 13.5174 12.2082 13.5078 12.2115 13.4951C12.237 13.3551 12.0873 13.2373 11.9504 13.2946C11.6544 13.422 11.3806 13.597 11.1354 13.8071C10.2186 14.5903 9.68695 15.8573 9.66469 17.0448C9.6583 17.2263 9.8366 17.3536 10.0499 17.3377L11.7339 17.223L10.6866 18.2863H13.0232V18.2862Z" fill="#31AEAE"/>
<path d="M10.104 17.9712C9.45581 17.865 9.0109 17.6826 9.02795 17.0257C9.04706 15.9815 9.40999 14.9342 10.0053 14.1065C8.40721 14.5235 7.03829 14.791 6.92374 14.791C5.46252 15.3545 4.81946 16.5483 4.81946 17.6942V18.2864H9.78885C9.91934 18.1495 10.0499 18.0476 10.104 17.9712ZM16.3022 18.2864C16.7861 16.8538 17.1585 15.4022 17.2031 14.3516C15.9902 15.59 14.0101 15.5932 12.7972 14.3516C12.8385 15.4022 13.2142 16.857 13.6949 18.2864H16.3022ZM20.9724 17.0321C20.9898 17.684 20.5371 17.8665 19.8963 17.9712C19.9505 18.0508 20.0778 18.1527 20.2083 18.2864H25.1808V17.6911C25.1808 16.37 24.3372 15.2112 23.083 14.791C23.0575 14.7846 21.3766 14.3676 19.9218 14.0046C20.5648 14.8482 20.9532 15.9338 20.9724 17.0321Z" fill="#31AEAE"/>
<path d="M20.3356 17.0449C20.3133 15.8287 19.7562 14.5235 18.7948 13.7467C18.5656 13.5653 18.3205 13.4093 18.0499 13.2947C17.913 13.2373 17.7634 13.3552 17.7889 13.4952C17.792 13.508 17.7953 13.5207 17.7984 13.5366C17.9863 14.6636 17.5597 16.5036 16.9739 18.2863H19.3137L18.2664 17.223L19.9504 17.3377C20.1637 17.3537 20.342 17.2263 20.3356 17.0449ZM10.8839 9.00141C10.9497 9.18387 10.5954 10.4606 12.8354 12.8566C14.0041 14.105 16.0043 14.103 17.1712 12.8566C19.4175 10.4538 19.0588 9.18697 19.1259 9.00141C19.8385 9.00141 20.2115 8.14553 19.7116 7.62293C20.1319 6.6934 20.3706 5.68746 20.3706 4.72277C20.3706 1.67309 17.9671 0.237305 15.0001 0.237305C12.0395 0.237305 9.63598 1.67303 9.63598 4.72277C9.63598 5.68746 9.87474 6.6934 10.2949 7.62293C9.79488 8.14582 10.1691 9.00141 10.8839 9.00141ZM26.5515 18.9231H3.44853C2.83916 18.9231 2.41365 19.5268 2.6185 20.1007L5.85785 29.1777C5.98307 29.5286 6.31535 29.7628 6.68789 29.7628H23.3121C23.6846 29.7628 24.0169 29.5285 24.1421 29.1777L27.3815 20.1007C27.5863 19.5268 27.1608 18.9231 26.5515 18.9231ZM15.0001 25.9576C13.9025 25.9576 13.0121 25.4269 13.0121 24.7693C13.0121 24.1118 13.9025 23.5787 15.0001 23.5787C16.0977 23.5787 16.9881 24.1118 16.9881 24.7693C16.9881 25.4269 16.0977 25.9576 15.0001 25.9576Z" fill="#31AEAE"/>
</svg>
