<svg width="170" height="156" viewBox="0 0 170 156" fill="none" xmlns="http://www.w3.org/2000/svg">
<path d="M0.625 91.843V112.904C0.625 116.791 3.75397 119.92 7.64062 119.92H161.984C165.871 119.92 169 116.791 169 112.904V91.843H0.625Z" fill="#7356CB" stroke="white" stroke-linecap="round" stroke-linejoin="round"/>
<path d="M161.984 0.639893H7.64062C3.766 0.639893 0.625 3.78089 0.625 7.65552V112.89C0.625 116.765 3.766 119.906 7.64062 119.906H161.984C165.859 119.906 169 116.765 169 112.89V7.65552C169 3.78089 165.859 0.639893 161.984 0.639893Z" stroke="white" stroke-linecap="round" stroke-linejoin="round"/>
<path d="M63.7656 120.031H105.859C99.2787 139.837 110.006 147.112 119.891 154.99H49.7344C61.8854 146.214 71.2513 136.329 63.7656 120.031Z" stroke="white" stroke-linecap="round" stroke-linejoin="round"/>
<path d="M0.625 91.8503H169" stroke="white"/>
<path d="M35.7031 154.991H133.922" stroke="white" stroke-linecap="round" stroke-linejoin="round"/>
<path d="M56.6259 21.701C54.5422 21.701 49.919 21.5324 49.919 24.7245V40.0746C49.919 41.8987 45.5835 45.1541 45.5835 46.1713C45.5835 47.1886 49.9824 49.6792 49.9824 52.3451V67.7864C49.9824 71.175 55.5525 70.7894 56.6259 70.7894M113.235 21.701C115.312 21.701 119.942 21.5324 119.942 24.7245V40.0746C119.942 41.8987 124.278 45.1541 124.278 46.1713C124.278 47.1886 119.872 49.6792 119.872 52.3451V67.7864C119.872 71.175 114.309 70.7894 113.235 70.7894M67.2688 56.7718H102.347M67.2688 35.725H102.347" stroke="white"/>
<path d="M83.5009 110.617C86.3603 110.617 88.6782 108.299 88.6782 105.439C88.6782 102.58 86.3603 100.262 83.5009 100.262C80.6414 100.262 78.3231 102.58 78.3231 105.439C78.3231 108.299 80.6414 110.617 83.5009 110.617Z" fill="white"/>
</svg>
