<svg width="180" height="180" viewBox="0 0 180 180" fill="none" xmlns="http://www.w3.org/2000/svg">
<path d="M157.331 92.376H117V112.677H157.331V92.376Z" fill="#7356CB"/>
<path d="M157.331 58H117V78.3008H157.331V58Z" fill="#7356CB"/>
<path d="M157.331 126.481H117V146.782H157.331V126.481Z" fill="#7356CB"/>
<path d="M123.429 35.7294H155.098C160.241 35.7294 164.301 31.6692 164.301 26.5264C164.301 21.3835 160.241 17.3233 155.098 17.3233C154.015 17.3233 152.932 17.594 152.12 17.8647C151.579 11.9098 145.353 7.84966 139.94 10.0151C138.045 7.03763 135.068 5.41357 131.82 5.41357C125.594 5.41357 121.263 11.3685 122.887 17.3233C118.015 17.594 113.955 21.6542 113.955 26.5264C113.955 31.6692 118.286 35.7294 123.429 35.7294ZM123.429 20.0301C123.97 20.0301 124.511 20.0301 124.782 20.3008L128.03 21.1128L126.406 18.1354C123.699 13.5339 126.947 8.12034 131.82 8.12034C134.526 8.12034 136.692 9.7444 137.775 12.1805L138.587 13.5339L139.94 12.7218C144 10.5564 149.414 13.5339 149.414 18.6767C149.414 19.7594 149.414 19.7594 148.602 23.0076C150.767 21.6542 152.12 20.0301 155.098 20.0301C158.617 20.0301 161.594 23.0076 161.594 26.5264C161.594 30.0452 158.617 33.0226 155.098 33.0226H123.429C119.91 33.0226 116.932 30.0452 116.932 26.5264C116.662 23.0076 119.639 20.0301 123.429 20.0301Z" fill="white"/>
<path d="M170.256 159.158V46.0151C170.256 45.203 169.714 44.6617 168.902 44.6617H104.211V4.06017C104.211 3.24814 103.669 2.70679 102.857 2.70679H12.7219C11.9098 2.70679 11.3685 3.24814 11.3685 4.06017V159.158C7.30833 159.699 4.60156 163.218 4.60156 167.008C4.60156 171.338 8.12036 175.128 12.7219 175.128H168.902C173.233 175.128 177.023 171.609 177.023 167.008C177.023 163.218 174.045 159.699 170.256 159.158ZM72.2707 158.887H43.3083V124.241H72.2707V158.887ZM167.549 47.3684V159.158H104.211V47.3684H167.549ZM14.0752 5.41355H101.504V46.0151V159.158H74.9775V121.534H40.6016V158.887H14.0752V5.41355ZM168.902 172.421H12.7219C9.74442 172.421 7.30833 169.985 7.30833 167.008C7.30833 164.03 9.74442 161.594 12.7219 161.594H168.902C171.88 161.594 174.316 164.03 174.316 167.008C174.316 170.256 171.88 172.421 168.902 172.421Z" fill="white"/>
<path d="M51.4287 87.4286H24.0903V112.331H51.4287V87.4286ZM48.7219 109.624H26.7971V90.1354H48.7219V109.624ZM51.4287 16.782H24.0903V41.6842H51.4287V16.782ZM48.7219 38.9775H26.7971V19.4887H48.7219V38.9775ZM91.4888 52.2406H64.1505V77.1429H91.4888V52.2406ZM88.7821 74.4361H66.8573V54.9474H88.7821V74.4361Z" fill="white"/>
</svg>
