<svg width="30" height="30" viewBox="0 0 30 30" fill="none" xmlns="http://www.w3.org/2000/svg">
<g clip-path="url(#clip0_335_436)">
<path d="M0.9375 24.375H9.375V29.0625H0.9375V24.375ZM10.7812 20.1562H19.2188V29.0625H10.7812V20.1562ZM20.625 15.9375H29.0625V29.0625H20.625V15.9375ZM24.375 5.15625L25.7812 1.40625L21.5625 1.875L22.5436 3.01922C20.2243 4.22527 17.8206 5.26173 15.3516 6.12047C10.997 7.62206 6.46789 8.55923 1.875 8.90906L1.94625 9.84375C6.61913 9.48765 11.2271 8.53427 15.6577 7.00688C18.2392 6.10967 20.7504 5.02151 23.1703 3.75141L24.375 5.15625ZM2.34375 4.6875H3.28125V3.28125H4.6875V2.34375H3.28125V0.9375H2.34375V2.34375H0.9375V3.28125H2.34375V4.6875ZM1.40625 18.2812V22.9688C1.40625 23.0931 1.45564 23.2123 1.54354 23.3002C1.63145 23.3881 1.75068 23.4375 1.875 23.4375H8.4375C8.56182 23.4375 8.68105 23.3881 8.76896 23.3002C8.85686 23.2123 8.90625 23.0931 8.90625 22.9688V18.2812C8.90625 17.1975 8.16281 16.2919 7.16203 16.0252C7.57734 15.6033 7.86469 15.0591 7.93641 14.4455C7.965 14.3011 7.96875 14.1652 7.96875 14.0625C7.96875 12.5114 6.70734 11.25 5.15625 11.25C3.60516 11.25 2.34375 12.5114 2.34375 14.0625C2.34375 14.1652 2.3475 14.3011 2.37047 14.408C2.44484 15.0188 2.72081 15.5874 3.15469 16.0237C2.15156 16.2891 1.40625 17.1961 1.40625 18.2812ZM5.15625 21.5625L4.21875 20.1562L5.02219 16.875H5.28984L6.09375 20.1562L5.15625 21.5625ZM3.30562 13.8239C3.79875 13.3898 4.44656 13.125 5.15625 13.125C5.86594 13.125 6.51375 13.3898 7.00688 13.8239C7.01719 13.9027 7.03125 13.9809 7.03125 14.0625C7.03125 14.13 7.02984 14.197 7.01109 14.2983C6.90141 15.233 6.10406 15.9375 5.15625 15.9375C4.20844 15.9375 3.41109 15.233 3.29531 14.2612C3.28422 14.1956 3.27951 14.129 3.28125 14.0625C3.28125 13.9809 3.29531 13.9027 3.30562 13.8239ZM19.2188 15C19.2188 12.6698 17.3302 10.7812 15 10.7812C12.6698 10.7812 10.7812 12.6698 10.7812 15C10.7812 17.3302 12.6698 19.2188 15 19.2188C17.3302 19.2188 19.2188 17.3302 19.2188 15ZM13.5938 15.9375H14.5312C14.5312 16.1958 14.7417 16.4062 15 16.4062C15.2583 16.4062 15.4688 16.1958 15.4688 15.9375C15.4688 15.6792 15.2583 15.4688 15 15.4688C14.2247 15.4688 13.5938 14.8378 13.5938 14.0625C13.5938 13.4522 13.987 12.9366 14.5312 12.7425V12.1875H15.4688V12.7425C16.013 12.9366 16.4062 13.4522 16.4062 14.0625H15.4688C15.4688 13.8042 15.2583 13.5938 15 13.5938C14.7417 13.5938 14.5312 13.8042 14.5312 14.0625C14.5312 14.3208 14.7417 14.5312 15 14.5312C15.7753 14.5312 16.4062 15.1622 16.4062 15.9375C16.4053 16.2274 16.3147 16.5099 16.1469 16.7462C15.979 16.9825 15.7421 17.1611 15.4688 17.2575V17.8125H14.5312V17.2575C14.2579 17.1611 14.021 16.9825 13.8531 16.7462C13.6853 16.5099 13.5947 16.2274 13.5938 15.9375ZM24.8438 6.09375C23.7249 6.09375 22.6518 6.53822 21.8606 7.32939C21.0695 8.12056 20.625 9.19362 20.625 10.3125C20.625 12.6427 22.5136 14.5312 24.8438 14.5312C27.1739 14.5312 29.0625 12.6427 29.0625 10.3125C29.0625 9.19362 28.618 8.12056 27.8269 7.32939C27.0357 6.53822 25.9626 6.09375 24.8438 6.09375ZM24.8438 9.84375C25.6191 9.84375 26.25 10.4747 26.25 11.25C26.2491 11.5399 26.1585 11.8224 25.9906 12.0587C25.8228 12.295 25.5859 12.4736 25.3125 12.57V13.125H24.375V12.57C24.1016 12.4736 23.8647 12.295 23.6969 12.0587C23.529 11.8224 23.4384 11.5399 23.4375 11.25H24.375C24.375 11.5083 24.5855 11.7188 24.8438 11.7188C25.102 11.7188 25.3125 11.5083 25.3125 11.25C25.3125 10.9917 25.102 10.7812 24.8438 10.7812C24.0684 10.7812 23.4375 10.1503 23.4375 9.375C23.4375 8.76469 23.8308 8.24906 24.375 8.055V7.5H25.3125V8.055C25.8567 8.24906 26.25 8.76469 26.25 9.375H25.3125C25.3125 9.11672 25.102 8.90625 24.8438 8.90625C24.5855 8.90625 24.375 9.11672 24.375 9.375C24.375 9.63328 24.5855 9.84375 24.8438 9.84375Z" fill="#9E4CC9"/>
</g>
<defs>
<clipPath id="clip0_335_436">
<rect width="30" height="30" fill="white"/>
</clipPath>
</defs>
</svg>
