<svg width="16" height="16" viewBox="0 0 16 16" fill="none" xmlns="http://www.w3.org/2000/svg">
<g clip-path="url(#clip0_335_75)">
<path d="M4.99976 9.875C4.43726 10 3.81226 10.0625 3.24976 10.1875C2.68726 10.3125 2.06226 10.4375 1.49976 10.625C0.874756 8.9375 0.874756 7.25 1.49976 5.5C2.12476 5.625 2.68726 5.8125 3.24976 5.9375C3.81226 6.0625 4.43726 6.125 4.99976 6.25C4.99976 7.375 4.99976 8.625 4.99976 9.875Z" fill="#9E4CC9"/>
<path d="M14.5623 10.625C13.3748 10.25 12.1873 10.0625 11.0623 9.9375C11.0623 8.6875 11.0623 7.4375 11.0623 6.1875C12.2498 6.0625 13.4373 5.8125 14.5623 5.5C15.2498 7.1875 15.2498 8.875 14.5623 10.625Z" fill="#9E4CC9"/>
<path d="M5.99976 9.8125C5.93726 8.625 5.93726 7.4375 5.99976 6.25C7.37476 6.375 8.68726 6.375 10.0623 6.25C10.1248 7.4375 10.1248 8.625 10.0623 9.8125C8.68726 9.6875 7.37476 9.6875 5.99976 9.8125Z" fill="#9E4CC9"/>
<path d="M9.99976 5.25C8.68726 5.375 7.43726 5.375 6.06226 5.25C6.12476 4.875 6.18726 4.5 6.24976 4.125C6.37476 3.25 6.62476 2.375 6.99976 1.5625C7.24976 1 7.24976 1 7.81226 1C8.12476 1 8.43726 1 8.68726 1C8.81226 1 8.87476 1.0625 8.87476 1.125C9.24976 1.8125 9.49976 2.5625 9.62476 3.3125C9.74976 3.9375 9.81226 4.5 9.93726 5.125C9.99976 5.1875 9.99976 5.25 9.99976 5.25Z" fill="#9E4CC9"/>
<path d="M6.06226 10.8125C7.37476 10.6875 8.68726 10.6875 9.99976 10.8125C9.93726 11.1875 9.87476 11.5625 9.81226 11.9375C9.68726 12.8125 9.43726 13.6875 9.06226 14.5C8.81226 15.0625 8.81226 15.0625 8.24976 15.0625C7.93726 15.0625 7.68726 15.0625 7.37476 15.0625C7.24976 15.0625 7.18726 15 7.18726 14.9375C6.87476 14.3125 6.68726 13.6875 6.49976 13.0625C6.31226 12.25 6.18726 11.5625 6.06226 10.8125Z" fill="#9E4CC9"/>
<path d="M9.99951 1.25C11.812 1.8125 13.187 2.875 14.1245 4.5C13.062 4.8125 11.9995 5 10.8745 5.125C10.7495 3.875 10.4995 2.5625 9.99951 1.25Z" fill="#9E4CC9"/>
<path d="M9.99951 14.8125C10.4995 13.5625 10.7495 12.25 10.937 10.9375C11.4995 10.9375 13.7495 11.375 14.1245 11.5625C13.187 13.125 11.812 14.1875 9.99951 14.8125Z" fill="#9E4CC9"/>
<path d="M6.06238 1.25C5.56238 2.5 5.31238 3.8125 5.12488 5.125C4.06238 5.0625 2.99988 4.875 1.93738 4.5625C2.87488 2.9375 4.24988 1.875 6.06238 1.25Z" fill="#9E4CC9"/>
<path d="M1.93726 11.5C2.99976 11.1875 4.06226 11 5.18726 10.875C5.37476 12.1875 5.62476 13.5 6.12476 14.75C4.24976 14.1875 2.87476 13.125 1.93726 11.5Z" fill="#9E4CC9"/>
</g>
<defs>
<clipPath id="clip0_335_75">
<rect width="15" height="15" fill="white" transform="translate(0.5 0.5)"/>
</clipPath>
</defs>
</svg>
