<svg width="24" height="24" viewBox="0 0 24 24" fill="none" xmlns="http://www.w3.org/2000/svg">
<path d="M12 24C18.6274 24 24 18.6274 24 12C24 5.37258 18.6274 0 12 0C5.37258 0 0 5.37258 0 12C0 18.6274 5.37258 24 12 24Z" fill="#1A9D9D"/>
<path fill-rule="evenodd" clip-rule="evenodd" d="M8.25289 17.8523L3.8641 13.155C3.26325 12.5119 3.29774 11.4944 3.94083 10.8936C4.58392 10.2927 5.60136 10.3273 6.20221 10.9703L9.58754 14.5936L14.9461 9.58691C14.9942 9.54184 15.0446 9.50055 15.0967 9.46256L17.6166 7.1082C18.2597 6.50735 19.2772 6.54193 19.878 7.18502C20.4788 7.82801 20.4442 8.84556 19.8012 9.44641L12.1048 16.6374L12.0966 16.6286L9.43428 19.1161L8.25289 17.8523Z" fill="white"/>
</svg>
