<svg width="27" height="28" viewBox="0 0 27 28" fill="none" xmlns="http://www.w3.org/2000/svg">
<path d="M19 12C17.4178 12 15.871 12.4692 14.5554 13.3482C13.2398 14.2273 12.2145 15.4767 11.609 16.9385C11.0035 18.4003 10.845 20.0089 11.1537 21.5607C11.4624 23.1126 12.2243 24.538 13.3431 25.6569C14.462 26.7757 15.8874 27.5376 17.4393 27.8463C18.9911 28.155 20.5997 27.9965 22.0615 27.391C23.5233 26.7855 24.7727 25.7602 25.6518 24.4446C26.5308 23.129 27 21.5822 27 20C26.9976 17.879 26.154 15.8455 24.6542 14.3458C23.1544 12.846 21.121 12.0024 19 12ZM20 23.949V24C20 24.2652 19.8946 24.5196 19.7071 24.7071C19.5196 24.8946 19.2652 25 19 25C18.7348 25 18.4804 24.8946 18.2929 24.7071C18.1054 24.5196 18 24.2652 18 24C17.7348 24 17.4804 23.8946 17.2929 23.7071C17.1054 23.5196 17 23.2652 17 23C17 22.7348 17.1054 22.4804 17.2929 22.2929C17.4804 22.1054 17.7348 22 18 22H19.5C19.6326 22 19.7598 21.9473 19.8536 21.8535C19.9473 21.7598 20 21.6326 20 21.5C20 21.3674 19.9473 21.2402 19.8536 21.1464C19.7598 21.0527 19.6326 21 19.5 21H18.5C17.8809 20.9994 17.284 20.7691 16.8249 20.3537C16.3659 19.9383 16.0773 19.3673 16.0151 18.7513C15.9528 18.1353 16.1214 17.5181 16.4881 17.0193C16.8548 16.5204 17.3935 16.1754 18 16.051V16C18 15.7348 18.1054 15.4804 18.2929 15.2929C18.4804 15.1054 18.7348 15 19 15C19.2652 15 19.5196 15.1054 19.7071 15.2929C19.8946 15.4804 20 15.7348 20 16C20.2652 16 20.5196 16.1054 20.7071 16.2929C20.8946 16.4804 21 16.7348 21 17C21 17.2652 20.8946 17.5196 20.7071 17.7071C20.5196 17.8946 20.2652 18 20 18H18.5C18.3674 18 18.2402 18.0527 18.1464 18.1464C18.0527 18.2402 18 18.3674 18 18.5C18 18.6326 18.0527 18.7598 18.1464 18.8535C18.2402 18.9473 18.3674 19 18.5 19H19.5C20.1191 19.0006 20.716 19.2309 21.1751 19.6463C21.6341 20.0617 21.9227 20.6327 21.985 21.2487C22.0472 21.8647 21.8786 22.4819 21.5119 22.9807C21.1452 23.4795 20.6065 23.8246 20 23.949ZM11.19 13.76C12.1252 12.5863 13.3132 11.6386 14.6654 10.9876C16.0176 10.3366 17.4992 9.99904 19 10C19.11 10 19.22 10 19.32 10.01C19.7714 9.071 20.0039 8.04184 20 7C20.0004 5.69331 19.635 4.41261 18.9452 3.30283C18.2554 2.19305 17.2688 1.29849 16.0969 0.720388C14.9251 0.142288 13.6148 -0.0962723 12.3144 0.0317042C11.014 0.159681 9.7754 0.649084 8.73873 1.44453C7.70206 2.23998 6.90873 3.30971 6.44852 4.53267C5.98831 5.75562 5.87959 7.08298 6.13467 8.36453C6.38975 9.64607 6.99844 10.8306 7.89186 11.7842C8.78528 12.7377 9.92776 13.4221 11.19 13.76Z" fill="#9E4CC9"/>
<path d="M11.33 14C8.26721 14.1679 5.38534 15.5036 3.27767 17.7322C1.17 19.9608 -0.00305597 22.9126 5.97926e-06 25.98H12.86C11.3328 24.4235 10.3567 22.4103 10.0804 20.2473C9.80421 18.0843 10.243 15.8903 11.33 14Z" fill="#9E4CC9"/>
</svg>
