<svg width="10" height="14" viewBox="0 0 10 14" fill="none" xmlns="http://www.w3.org/2000/svg">
<path d="M9.42998 3.61C9.38198 3.42985 9.28433 3.238 9.21218 3.07C8.34833 0.994 6.46088 0.25 4.93688 0.25C2.89673 0.25 0.649731 1.618 0.349731 4.43785V5.014C0.349731 5.038 0.357982 5.254 0.369832 5.362C0.537982 6.70585 1.59833 8.134 2.39033 9.47785C3.24233 10.9177 4.12643 12.334 5.00258 13.7497C5.54258 12.8259 6.08078 11.8899 6.60863 10.9899C6.75248 10.7257 6.91928 10.4617 7.06328 10.2097C7.15928 10.0419 7.34258 9.874 7.42643 9.71785C8.27828 8.1583 9.64973 6.586 9.64973 5.038V4.402C9.64973 4.23415 9.44168 3.64615 9.42998 3.61ZM4.97423 6.502C4.37453 6.502 3.71813 6.20215 3.39413 5.374C3.34583 5.24215 3.34973 4.978 3.34973 4.95385V4.58185C3.34973 3.52615 4.24613 3.046 5.02598 3.046C5.98598 3.046 6.72863 3.81415 6.72863 4.77415C6.72863 5.73415 5.93423 6.502 4.97423 6.502Z" fill="#9E4CC9"/>
</svg>
