<svg width="13" height="10" viewBox="0 0 13 10" fill="none" xmlns="http://www.w3.org/2000/svg">
<path d="M11.375 0H1.625C0.728516 0 0 0.728516 0 1.625V8.125C0 9.02148 0.728516 9.75 1.625 9.75H11.375C12.2715 9.75 13 9.02148 13 8.125V1.625C13 0.728516 12.2715 0 11.375 0ZM11.375 1.625V2.1377C10.7988 2.60254 9.83301 3.35352 7.63574 5.06836C7.22754 5.38574 6.5 6.0625 6.5 6.0625C6.5 6.0625 5.77246 5.38574 5.36426 5.06836C3.16699 3.35352 2.20117 2.60254 1.625 2.1377V1.625H11.375ZM1.625 8.125V4.16309C2.22754 4.63867 3.10254 5.31934 4.44824 6.37793C4.99121 6.80176 5.85547 7.6875 6.5 7.6875C7.14453 7.6875 8.00879 6.80176 8.55176 6.37793C9.89746 5.31934 10.7725 4.63867 11.375 4.16309V8.125H1.625Z" fill="#00D1FF"/>
</svg>