<svg width="555" height="379" viewBox="0 0 555 379" fill="none" xmlns="http://www.w3.org/2000/svg">
<path d="M545.359 0C550.583 9.07091e-05 554.817 4.23453 554.817 9.45801C554.817 12.9073 552.853 15.9968 550.092 18.0645C538.121 27.029 542.521 36.7326 549.229 41.6553C552.23 43.8567 554.817 47.0335 554.817 50.7549C554.817 54.0109 552.839 56.8668 550.139 58.6855C539.404 65.9151 543.016 75.0901 549.285 79.915C552.224 82.1767 554.817 85.3348 554.817 89.043C554.817 91.9487 553.239 94.5865 550.943 96.3682C537.925 106.473 543.339 117.325 550.716 121.96C552.982 123.384 554.817 125.67 554.817 128.347C554.817 131.556 552.269 134.161 549.09 134.604C515.647 139.271 503.245 171.019 503.509 189.5C503.993 223.422 529.686 237.324 547.473 241.569C551.604 242.555 554.817 246.08 554.817 250.328C554.817 253.324 553.135 256.021 550.739 257.819C539.579 266.193 543.561 275.018 549.354 279.931C552.292 282.423 554.817 285.781 554.817 289.634C554.817 292.872 553.034 295.797 550.509 297.824C539.535 306.634 543.517 315.637 549.377 320.473C552.28 322.868 554.817 326.126 554.817 329.89C554.817 333.161 552.896 336.062 550.277 338.023C540.213 345.56 543.009 354.831 547.968 359.772C551.046 362.839 554.817 366.788 554.817 371.133C554.817 375.478 551.295 379 546.95 379H7.86719C3.52223 379 6.59758e-05 375.478 0 371.133C0 366.788 3.77095 362.839 6.84863 359.772C11.8076 354.831 14.6039 345.56 4.54004 338.023C1.92129 336.062 0.00011946 333.161 0 329.89C0 326.126 2.53732 322.868 5.44043 320.473C11.3005 315.637 15.2817 306.634 4.30762 297.824C1.78249 295.797 0 292.872 0 289.634C0.000106663 285.78 2.52502 282.423 5.46387 279.931C11.2565 275.018 15.2379 266.193 4.07812 257.819C1.6822 256.021 2.28542e-05 253.324 0 250.328C0 246.08 3.21371 242.553 7.33887 241.54C25.1275 237.171 50.8325 222.826 51.3086 189.5C51.5726 171.019 39.1698 139.271 5.72754 134.604C2.54874 134.161 0 131.556 0 128.347C5.58092e-05 125.67 1.83533 123.384 4.10156 121.96C11.4782 117.325 16.8924 106.473 3.87402 96.3682C1.57855 94.5865 0.000121561 91.9487 0 89.043C0 85.3349 2.59271 82.1767 5.53125 79.915C11.8004 75.0901 15.4132 65.9152 4.67773 58.6855C1.9771 56.8668 0.00015908 54.0108 0 50.7549C0 47.0336 2.58658 43.8567 5.58691 41.6553C12.2959 36.7327 16.6963 27.0292 4.72559 18.0645C1.96463 15.9968 0 12.9073 0 9.45801C9.69007e-05 4.23448 4.23447 0 9.45801 0H545.359Z" fill="#2B204B"/>
</svg>
