<svg width="24" height="24" viewBox="0 0 24 24" fill="none" xmlns="http://www.w3.org/2000/svg">
<g clip-path="url(#clip0_335_124)">
<path d="M11.3 0C11.8 0 12.2 0 12.7 0C13.1 0.1 13.5 0.1 14 0.2C16.4 0.6 18.5 1.6 20.3 3.3C22.1 5.1 23.3 7.2 23.8 9.7C23.9 10.2 24 10.8 24 11.3C24 11.8 24 12.3 24 12.8C24 12.9 24 12.9 24 13C23.9 14.9 23.3 16.7 22.3 18.3C22.2 18.4 22.2 18.6 22.3 18.7C22.6 19.8 22.9 20.9 23.2 22.1C23.2 22.2 23.3 22.3 23.3 22.4C23.4 23.1 22.7 23.5 22 23.4C20.9 23.1 19.8 22.8 18.6 22.4C18.4 22.4 18.3 22.4 18.1 22.5C16.8 23.3 15.4 23.8 13.9 24C13.5 24.1 13 24.1 12.6 24.2C12.1 24.2 11.7 24.2 11.2 24.2C11.1 24.2 11.1 24.2 11 24.2C9.20002 24.1 7.50002 23.6 6.00002 22.7C2.80002 20.8 0.800024 18 0.100024 14.3C2.44156e-05 13.9 2.44156e-05 13.4 -0.0999756 13C-0.0999756 12.5 -0.0999756 12 -0.0999756 11.5C2.44156e-05 11.1 2.44156e-05 10.6 0.100024 10.2C1.10002 5 5.00002 1.1 10 0.2C10.4 0.2 10.9 0.1 11.3 0ZM12.1 3.8C11.7 3.9 11.3 3.9 10.9 4C8.90002 4.5 7.50002 6.4 7.50002 8.4C7.50002 9 7.90003 9.5 8.60003 9.6C9.20003 9.7 9.80002 9.3 10 8.7C10 8.6 10 8.4 10 8.2C10.1 7 11.2 6.1 12.4 6.3C13.5 6.5 14.4 7.7 14.1 8.8C14 9.3 13.7 9.7 13.3 10.1C11.8 11.3 10.9 12.9 10.9 14.9C10.9 15.6 11.4 16.2 12.1 16.2C12.8 16.2 13.3 15.7 13.3 14.9C13.3 14.6 13.3 14.3 13.4 14C13.6 13.1 14.2 12.4 14.9 11.9C16.4 10.7 17 8.7 16.4 6.9C15.7 5.1 14 3.8 12.1 3.8ZM12 17.8C11.3 17.8 10.8 18.3 10.8 19C10.8 19.7 11.3 20.2 12 20.2C12.7 20.2 13.2 19.7 13.2 19C13.3 18.3 12.7 17.8 12 17.8Z" fill="#9E4CC9"/>
</g>
<defs>
<clipPath id="clip0_335_124">
<rect width="24" height="24" fill="white"/>
</clipPath>
</defs>
</svg>
