<svg width="20" height="19" viewBox="0 0 20 19" fill="none" xmlns="http://www.w3.org/2000/svg">
<path d="M19.137 9.019L16.411 8.24C15.1834 7.89391 14.0652 7.23857 13.1633 6.3367C12.2614 5.43482 11.6061 4.31659 11.26 3.089L10.481 0.362998C10.4418 0.267624 10.3752 0.18605 10.2895 0.128641C10.2039 0.0712325 10.1031 0.0405807 9.99999 0.0405807C9.89688 0.0405807 9.7961 0.0712325 9.71045 0.128641C9.62481 0.18605 9.55816 0.267624 9.51899 0.362998L8.73999 3.089C8.3939 4.31659 7.73856 5.43482 6.83668 6.3367C5.93481 7.23857 4.81658 7.89391 3.58899 8.24L0.862987 9.019C0.758318 9.04871 0.666196 9.11175 0.600599 9.19855C0.535002 9.28536 0.499512 9.3912 0.499512 9.5C0.499512 9.6088 0.535002 9.71464 0.600599 9.80145C0.666196 9.88825 0.758318 9.95129 0.862987 9.981L3.58899 10.76C4.81658 11.1061 5.93481 11.7614 6.83668 12.6633C7.73856 13.5652 8.3939 14.6834 8.73999 15.911L9.51899 18.637C9.5487 18.7417 9.61174 18.8338 9.69854 18.8994C9.78535 18.965 9.89118 19.0005 9.99999 19.0005C10.1088 19.0005 10.2146 18.965 10.3014 18.8994C10.3882 18.8338 10.4513 18.7417 10.481 18.637L11.26 15.911C11.6061 14.6834 12.2614 13.5652 13.1633 12.6633C14.0652 11.7614 15.1834 11.1061 16.411 10.76L19.137 9.981C19.2417 9.95129 19.3338 9.88825 19.3994 9.80145C19.465 9.71464 19.5005 9.6088 19.5005 9.5C19.5005 9.3912 19.465 9.28536 19.3994 9.19855C19.3338 9.11175 19.2417 9.04871 19.137 9.019Z" fill="#3DD8D8"/>
</svg>
