<svg width="72" height="72" viewBox="0 0 72 72" fill="none" xmlns="http://www.w3.org/2000/svg">
<rect width="72" height="72" rx="36" fill="#31AEAE"/>
<path d="M22.2 50.4C23.1941 50.4 24 49.5942 24 48.6C24 47.6059 23.1941 46.8 22.2 46.8C21.2059 46.8 20.4 47.6059 20.4 48.6C20.4 49.5942 21.2059 50.4 22.2 50.4Z" fill="white"/>
<path d="M27 53.4C27 52.7635 26.7471 52.153 26.297 51.7029C25.8469 51.2529 25.2365 51 24.6 51H19.8C19.1634 51 18.553 51.2529 18.1029 51.7029C17.6528 52.153 17.4 52.7635 17.4 53.4V54.6H27V53.4Z" fill="white"/>
<path d="M36 50.4C36.9941 50.4 37.8 49.5942 37.8 48.6C37.8 47.6059 36.9941 46.8 36 46.8C35.0059 46.8 34.2 47.6059 34.2 48.6C34.2 49.5942 35.0059 50.4 36 50.4Z" fill="white"/>
<path d="M38.4 51H33.6C32.9635 51 32.353 51.2529 31.903 51.7029C31.4529 52.153 31.2 52.7635 31.2 53.4V54.6H40.8V53.4C40.8 52.7635 40.5472 52.153 40.0971 51.7029C39.647 51.2529 39.0365 51 38.4 51Z" fill="white"/>
<path d="M49.8 50.4C50.7941 50.4 51.6 49.5942 51.6 48.6C51.6 47.6059 50.7941 46.8 49.8 46.8C48.8059 46.8 48 47.6059 48 48.6C48 49.5942 48.8059 50.4 49.8 50.4Z" fill="white"/>
<path d="M52.2 51.0001H47.4C46.7635 51.0001 46.153 51.253 45.703 51.7031C45.2529 52.1532 45 52.7636 45 53.4001V54.6001H54.6V53.4001C54.6 52.7636 54.3472 52.1532 53.8971 51.7031C53.447 51.253 52.8365 51.0001 52.2 51.0001ZM52.8 17.4001H19.2V30.6481C19.9292 30.2251 20.757 30.0016 21.6 30.0001H22.866C22.2686 29.4169 21.8585 28.6687 21.6883 27.8513C21.518 27.0339 21.5952 26.1842 21.9101 25.4109C22.225 24.6376 22.7633 23.9757 23.4562 23.5097C24.149 23.0438 24.965 22.7949 25.8 22.7949C26.635 22.7949 27.451 23.0438 28.1439 23.5097C28.8367 23.9757 29.375 24.6376 29.6899 25.4109C30.0048 26.1842 30.082 27.0339 29.9118 27.8513C29.7415 28.6687 29.3315 29.4169 28.734 30.0001H30C31.2731 30.0001 32.494 30.5059 33.3941 31.406C34.2943 32.3062 34.8 33.5271 34.8 34.8001V35.4001H35.4V37.5001L33.24 39.1201C33.177 39.1674 33.1239 39.2267 33.0837 39.2945C33.0436 39.3622 33.0172 39.4373 33.006 39.5153C32.9835 39.6728 33.0245 39.8328 33.12 39.9601C33.2155 40.0875 33.3576 40.1716 33.5152 40.1941C33.5932 40.2053 33.6726 40.2009 33.7489 40.1814C33.8252 40.1618 33.897 40.1274 33.96 40.0801L35.4 39.0001V40.2001C35.4 40.3593 35.4632 40.5119 35.5757 40.6244C35.6883 40.7369 35.8409 40.8001 36 40.8001C36.1591 40.8001 36.3118 40.7369 36.4243 40.6244C36.5368 40.5119 36.6 40.3593 36.6 40.2001V39.0001L38.04 40.0801C38.1439 40.158 38.2702 40.2001 38.4 40.2001C38.4932 40.2001 38.585 40.1785 38.6683 40.1368C38.7517 40.0951 38.8241 40.0347 38.88 39.9601C38.9755 39.8328 39.0165 39.6728 38.994 39.5153C38.9715 39.3578 38.8873 39.2156 38.76 39.1201L36.6 37.5001V35.4001H52.8V17.4001ZM31.8 20.4001H40.2C40.3591 20.4001 40.5118 20.4634 40.6243 20.5759C40.7368 20.6884 40.8 20.841 40.8 21.0001C40.8 21.1593 40.7368 21.3119 40.6243 21.4244C40.5118 21.5369 40.3591 21.6001 40.2 21.6001H31.8C31.6409 21.6001 31.4883 21.5369 31.3757 21.4244C31.2632 21.3119 31.2 21.1593 31.2 21.0001C31.2 20.841 31.2632 20.6884 31.3757 20.5759C31.4883 20.4634 31.6409 20.4001 31.8 20.4001ZM31.8 23.4001H44.4C44.5591 23.4001 44.7118 23.4634 44.8243 23.5759C44.9368 23.6884 45 23.841 45 24.0001C45 24.1593 44.9368 24.3119 44.8243 24.4244C44.7118 24.5369 44.5591 24.6001 44.4 24.6001H31.8C31.6409 24.6001 31.4883 24.5369 31.3757 24.4244C31.2632 24.3119 31.2 24.1593 31.2 24.0001C31.2 23.841 31.2632 23.6884 31.3757 23.5759C31.4883 23.4634 31.6409 23.4001 31.8 23.4001ZM49.8 27.6001H31.8C31.6409 27.6001 31.4883 27.5369 31.3757 27.4244C31.2632 27.3119 31.2 27.1593 31.2 27.0001C31.2 26.841 31.2632 26.6884 31.3757 26.5759C31.4883 26.4634 31.6409 26.4001 31.8 26.4001H49.8C49.9591 26.4001 50.1118 26.4634 50.2243 26.5759C50.3368 26.6884 50.4 26.841 50.4 27.0001C50.4 27.1593 50.3368 27.3119 50.2243 27.4244C50.1118 27.5369 49.9591 27.6001 49.8 27.6001Z" fill="white"/>
<path d="M25.8 30C27.4568 30 28.8 28.6569 28.8 27C28.8 25.3431 27.4568 24 25.8 24C24.1431 24 22.8 25.3431 22.8 27C22.8 28.6569 24.1431 30 25.8 30Z" fill="white"/>
<path d="M33.6 34.8C33.6 33.8452 33.2207 32.9295 32.5456 32.2544C31.8705 31.5792 30.9548 31.2 30 31.2H21.6C20.6452 31.2 19.7295 31.5792 19.0544 32.2544C18.3793 32.9295 18 33.8452 18 34.8V36H33.6V34.8Z" fill="white"/>
</svg>
