<svg width="72" height="72" viewBox="0 0 72 72" fill="none" xmlns="http://www.w3.org/2000/svg">
<rect width="72" height="72" rx="36" fill="#CD3A8C"/>
<path d="M47.484 43.9981C48.174 43.3441 48.6 42.4201 48.6 41.4001V39.6001C48.6 37.9441 47.256 36.6001 45.6 36.6001H44.4C42.744 36.6001 41.4 37.9441 41.4 39.6001V41.4001C41.4 42.4201 41.826 43.3441 42.516 43.9981C41.286 44.3941 40.302 45.3421 39.858 46.5541C39.456 46.2181 38.994 45.9601 38.484 45.7981C39.174 45.1441 39.6 44.2201 39.6 43.2001V41.4001C39.6 39.7441 38.256 38.4001 36.6 38.4001H35.4C33.744 38.4001 32.4 39.7441 32.4 41.4001V43.2001C32.4 44.2201 32.826 45.1441 33.516 45.7981C33.006 45.9601 32.544 46.2181 32.142 46.5541C31.698 45.3421 30.714 44.3941 29.484 43.9981C30.174 43.3441 30.6 42.4201 30.6 41.4001V39.6001C30.6 37.9441 29.256 36.6001 27.6 36.6001H26.4C24.744 36.6001 23.4 37.9441 23.4 39.6001V41.4001C23.4 42.4201 23.826 43.3441 24.516 43.9981C22.824 44.5441 21.6 46.1341 21.6 48.0001V50.4001C21.6 51.3901 22.41 52.2001 23.4 52.2001H30.6C30.6 53.1901 31.41 54.0001 32.4 54.0001H39.6C40.59 54.0001 41.4 53.1901 41.4 52.2001H48.6C49.59 52.2001 50.4 51.3901 50.4 50.4001V48.0001C50.4 46.1341 49.176 44.5441 47.484 43.9981ZM42.6 41.3821C44.322 41.2921 45.432 40.8121 46.044 40.4461C46.476 40.9621 47.004 41.1961 47.4 41.3041V41.4001C47.4 42.7261 46.326 43.8001 45 43.8001C43.674 43.8001 42.6 42.7261 42.6 41.4001V41.3821ZM33.6 43.1821C35.316 43.0861 36.432 42.6121 37.044 42.2521C37.476 42.7681 38.004 42.9961 38.4 43.1041V43.2001C38.4 44.5261 37.326 45.6001 36 45.6001C34.674 45.6001 33.6 44.5261 33.6 43.2001V43.1821ZM35.4 39.6001H36.6C37.59 39.6001 38.4 40.4101 38.4 41.4001V41.8201C38.166 41.6941 37.914 41.4901 37.734 41.1301C37.65 40.9621 37.488 40.8421 37.296 40.8121C37.11 40.7761 36.912 40.8421 36.774 40.9741C36.762 40.9861 35.826 41.8441 33.594 41.9821V41.4001C33.594 40.4101 34.404 39.6001 35.394 39.6001H35.4ZM24.6 41.3821C26.322 41.2921 27.432 40.8121 28.044 40.4461C28.476 40.9621 29.004 41.1961 29.4 41.3041V41.4001C29.4 42.7261 28.326 43.8001 27 43.8001C25.674 43.8001 24.6 42.7261 24.6 41.4001V41.3821ZM40.2 52.2001C40.2 52.5301 39.93 52.8001 39.6 52.8001H32.4C32.07 52.8001 31.8 52.5301 31.8 52.2001V49.8001C31.8 49.1221 32.022 48.4981 32.4 48.0001C32.946 47.2741 33.822 46.8001 34.8 46.8001H37.2C38.178 46.8001 39.054 47.2741 39.6 48.0001C39.978 48.4981 40.2 49.1221 40.2 49.8001V52.2001Z" fill="white"/>
<path d="M32.076 29.9041C32.664 30.3361 33 30.9721 33 31.6321V33.6001C33 34.3801 33.504 35.0461 34.2 35.2921V35.4001C34.2 36.3901 35.01 37.2001 36 37.2001C36.99 37.2001 37.8 36.3901 37.8 35.4001V35.2921C38.496 35.0461 39 34.3801 39 33.6001V31.5541C39 30.9301 39.318 30.3421 39.87 29.9401C41.58 28.7041 42.6 26.7061 42.6 24.6001C42.6 22.7281 41.796 20.9341 40.404 19.6801C39.006 18.4321 37.128 17.8381 35.25 18.0421C32.304 18.3661 29.868 20.7361 29.466 23.6641C29.13 26.0761 30.132 28.4641 32.076 29.9041ZM36 36.0001C35.67 36.0001 35.4 35.7301 35.4 35.4001H36.6C36.6 35.7301 36.33 36.0001 36 36.0001ZM30.654 23.8321C30.984 21.4321 32.97 19.5001 35.382 19.2361C36.948 19.0621 38.442 19.5361 39.6 20.5741C40.746 21.6001 41.4 23.0641 41.4 24.6001C41.4 26.3221 40.566 27.9601 39.168 28.9741C38.4 29.5261 37.926 30.3241 37.818 31.2001H36.6V26.6461L38.226 25.0201C38.46 24.7861 38.46 24.4081 38.226 24.1741C37.992 23.9401 37.614 23.9401 37.38 24.1741L36.006 25.5481L34.632 24.1741C34.398 23.9401 34.02 23.9401 33.786 24.1741C33.552 24.4081 33.552 24.7861 33.786 25.0201L35.412 26.6461V31.2001H34.182C34.062 30.3181 33.57 29.5081 32.802 28.9381C31.212 27.7621 30.396 25.8061 30.666 23.8321H30.654ZM43.8 24.6001C43.8 24.9301 44.07 25.2001 44.4 25.2001H46.8C47.13 25.2001 47.4 24.9301 47.4 24.6001C47.4 24.2701 47.13 24.0001 46.8 24.0001H44.4C44.07 24.0001 43.8 24.2701 43.8 24.6001ZM43.8 21.6001C43.89 21.6001 43.98 21.5821 44.07 21.5341L46.47 20.3341C46.764 20.1841 46.884 19.8241 46.74 19.5301C46.59 19.2361 46.23 19.1161 45.936 19.2601L43.536 20.4601C43.242 20.6101 43.122 20.9701 43.266 21.2641C43.374 21.4741 43.584 21.5941 43.806 21.5941L43.8 21.6001ZM43.53 28.7341L45.93 29.9341C46.014 29.9761 46.11 30.0001 46.2 30.0001C46.422 30.0001 46.632 29.8801 46.74 29.6701C46.89 29.3761 46.77 29.0161 46.47 28.8661L44.07 27.6661C43.77 27.5161 43.41 27.6361 43.266 27.9361C43.116 28.2301 43.236 28.5901 43.536 28.7401L43.53 28.7341ZM25.2 25.2001H27.6C27.93 25.2001 28.2 24.9301 28.2 24.6001C28.2 24.2701 27.93 24.0001 27.6 24.0001H25.2C24.87 24.0001 24.6 24.2701 24.6 24.6001C24.6 24.9301 24.87 25.2001 25.2 25.2001ZM27.93 27.6601L25.53 28.8601C25.236 29.0101 25.116 29.3701 25.26 29.6641C25.368 29.8741 25.578 29.9941 25.8 29.9941C25.89 29.9941 25.98 29.9761 26.07 29.9281L28.47 28.7281C28.764 28.5781 28.884 28.2181 28.74 27.9241C28.59 27.6301 28.23 27.5041 27.936 27.6541L27.93 27.6601ZM25.53 20.3341L27.93 21.5341C28.014 21.5761 28.11 21.6001 28.2 21.6001C28.422 21.6001 28.632 21.4801 28.74 21.2701C28.89 20.9761 28.77 20.6161 28.47 20.4661L26.07 19.2661C25.776 19.1161 25.416 19.2361 25.266 19.5361C25.116 19.8301 25.236 20.1901 25.536 20.3401L25.53 20.3341Z" fill="white"/>
</svg>
