<svg width="72" height="72" viewBox="0 0 72 72" fill="none" xmlns="http://www.w3.org/2000/svg">
<rect width="72" height="72" rx="36" fill="#7356CB"/>
<path d="M38.544 36.2461C39.1459 35.7262 39.5743 35.0345 39.7716 34.2641C39.969 33.4936 39.9259 32.6811 39.648 31.9359C39.3702 31.1906 38.871 30.5482 38.2175 30.0949C37.5639 29.6417 36.7873 29.3992 35.9919 29.4001C35.1966 29.4011 34.4206 29.6454 33.7681 30.1002C33.1156 30.555 32.6179 31.1986 32.3418 31.9445C32.0658 32.6904 32.0246 33.5029 32.2237 34.273C32.4229 35.043 32.8529 35.7336 33.456 36.2521C32.8702 36.6851 32.3951 37.2506 32.0698 37.9024C31.7444 38.5541 31.578 39.2737 31.584 40.0021V41.2021C31.5844 41.319 31.6186 41.4334 31.6825 41.5313C31.7464 41.6292 31.8372 41.7066 31.944 41.7541C33.2234 42.3121 34.6042 42.6001 36 42.6001C37.3958 42.6001 38.7766 42.3121 40.056 41.7541C40.1629 41.7066 40.2537 41.6292 40.3176 41.5313C40.3814 41.4334 40.4156 41.319 40.416 41.2021V40.0021C40.4227 39.2727 40.2566 38.5521 39.9312 37.8993C39.6058 37.2464 39.1305 36.6799 38.544 36.2461ZM33.3 33.3001C33.306 32.588 33.5931 31.9071 34.0988 31.4056C34.6045 30.9042 35.2879 30.6228 36 30.6228C36.7122 30.6228 37.3955 30.9042 37.9012 31.4056C38.4069 31.9071 38.694 32.588 38.7 33.3001C38.694 34.0123 38.4069 34.6932 37.9012 35.1946C37.3955 35.6961 36.7122 35.9774 36 35.9774C35.2879 35.9774 34.6045 35.6961 34.0988 35.1946C33.5931 34.6932 33.306 34.0123 33.3 33.3001Z" fill="white"/>
<path d="M40.8 35.1C40.7212 35.1 40.6432 35.1155 40.5703 35.1456C40.4975 35.1757 40.4314 35.2199 40.3756 35.2757C40.3199 35.3314 40.2757 35.3975 40.2456 35.4704C40.2154 35.5432 40.2 35.6212 40.2 35.7V36.3C40.2 36.4592 40.2632 36.6118 40.3757 36.7243C40.4883 36.8368 40.6409 36.9 40.8 36.9C40.9591 36.9 41.1117 36.8368 41.2243 36.7243C41.3368 36.6118 41.4 36.4592 41.4 36.3V35.7C41.4 35.6212 41.3846 35.5432 41.3544 35.4704C41.3243 35.3975 41.2801 35.3314 41.2244 35.2757C41.1686 35.2199 41.1025 35.1757 41.0297 35.1456C40.9569 35.1155 40.8788 35.1 40.8 35.1ZM42.1658 34.9137C42.441 35.2085 42.594 35.5968 42.5939 36.0001C42.5938 36.4034 42.4406 36.7916 42.1652 37.0863C42.1109 37.1434 42.0683 37.2106 42.04 37.2842C42.0116 37.3577 41.9981 37.4361 42 37.5149C42.002 37.5937 42.0195 37.6713 42.0514 37.7434C42.0834 37.8154 42.1292 37.8805 42.1864 37.9348C43.2673 38.7555 43.9051 36.2329 43.8 36C43.7963 35.2882 43.5226 34.6042 43.0342 34.0864C42.9237 33.9747 42.7738 33.9108 42.6167 33.9085C42.4596 33.9062 42.3078 33.9656 42.1941 34.074C42.0803 34.1824 42.0137 34.331 42.0084 34.4881C42.0031 34.6451 42.0596 34.7979 42.1658 34.9137ZM31.8 36.3V35.7C31.7978 35.5424 31.7336 35.3919 31.6213 35.2812C31.509 35.1705 31.3577 35.1085 31.2 35.1085C31.0423 35.1085 30.891 35.1705 30.7787 35.2812C30.6664 35.3919 30.6022 35.5424 30.6 35.7V36.3C30.6022 36.4577 30.6664 36.6081 30.7787 36.7188C30.891 36.8295 31.0423 36.8916 31.2 36.8916C31.3577 36.8916 31.509 36.8295 31.6213 36.7188C31.7336 36.6081 31.7978 36.4577 31.8 36.3ZM29.4 36C29.4046 35.5965 29.5594 35.2092 29.8342 34.9137C29.9403 34.7979 29.9967 34.6451 29.9914 34.4881C29.9861 34.3312 29.9194 34.1825 29.8057 34.0742C29.692 33.9659 29.5403 33.9064 29.3832 33.9087C29.2262 33.911 29.0763 33.9748 28.9658 34.0864C28.4792 34.6048 28.2083 35.289 28.2083 35.9999C28.2082 36.7109 28.4788 37.3952 28.9653 37.9137C29.0758 38.0254 29.2258 38.0894 29.3829 38.0918C29.5401 38.0942 29.692 38.0348 29.8058 37.9265C29.9197 37.8181 29.9865 37.6694 29.9919 37.5123C29.9973 37.3552 29.9409 37.2022 29.8347 37.0863C29.5596 36.791 29.4046 36.4036 29.4 36Z" fill="white"/>
<path d="M50.4 32.4C49.5501 32.4017 48.7281 32.7037 48.0793 33.2526C47.4304 33.8015 46.9965 34.5621 46.854 35.4H46.17C46.0364 33.1167 45.1358 30.9455 43.614 29.238L44.106 28.746C47.718 31.224 51.768 26.436 48.726 23.274C45.552 20.232 40.788 24.282 43.254 27.894L42.762 28.386C41.0546 26.8642 38.8833 25.9636 36.6 25.83V25.146C40.89 24.33 40.404 18.102 36 18C31.596 18.102 31.11 24.336 35.4 25.146V25.83C33.1167 25.9636 30.9454 26.8642 29.238 28.386L28.746 27.894C31.212 24.282 26.448 20.232 23.274 23.274C20.232 26.436 24.282 31.224 27.894 28.746L28.386 29.238C26.8642 30.9455 25.9636 33.1167 25.83 35.4H25.146C24.33 31.11 18.102 31.596 18 36C18.102 40.404 24.336 40.89 25.146 36.6H25.83C25.9636 38.8833 26.8642 41.0546 28.386 42.762L27.894 43.254C24.282 40.788 20.232 45.552 23.274 48.726C26.448 51.768 31.212 47.718 28.746 44.106L29.238 43.614C30.9455 45.1357 33.1167 46.0364 35.4 46.17V46.854C31.11 47.67 31.596 53.898 36 54C40.404 53.898 40.89 47.664 36.6 46.854V46.17C38.8833 46.0364 41.0545 45.1357 42.762 43.614L43.254 44.106C40.788 47.718 45.552 51.768 48.726 48.726C51.768 45.552 47.718 40.788 44.106 43.254L43.614 42.762C45.1358 41.0546 46.0364 38.8833 46.17 36.6H46.854C47.67 40.896 53.898 40.398 54 36C53.9992 35.0455 53.6197 34.1302 52.9448 33.4552C52.2698 32.7803 51.3545 32.4008 50.4 32.4ZM36 45C33.6139 44.9971 31.3264 44.0479 29.6393 42.3607C27.9521 40.6736 27.0029 38.3861 27 36C27.492 24.06 44.508 24.066 45 36C44.9971 38.3861 44.0479 40.6736 42.3607 42.3607C40.6736 44.0479 38.3861 44.9971 36 45Z" fill="white"/>
</svg>
