<svg width="72" height="72" viewBox="0 0 72 72" fill="none" xmlns="http://www.w3.org/2000/svg">
<rect width="72" height="72" rx="36" fill="#E99C00"/>
<g clip-path="url(#clip0_335_697)">
<path d="M47.8069 24.1874H52.1831C52.3942 24.1796 52.594 24.0902 52.7406 23.9381C52.8871 23.786 52.969 23.583 52.969 23.3718C52.969 23.1606 52.8871 22.9576 52.7406 22.8055C52.594 22.6534 52.3942 22.564 52.1831 22.5562H47.8069C47.5958 22.564 47.396 22.6534 47.2494 22.8055C47.1029 22.9576 47.021 23.1606 47.021 23.3718C47.021 23.583 47.1029 23.786 47.2494 23.9381C47.396 24.0902 47.5958 24.1796 47.8069 24.1874ZM47.8069 26.5387H52.1831C52.3942 26.5308 52.594 26.4414 52.7406 26.2893C52.8871 26.1372 52.969 25.9342 52.969 25.723C52.969 25.5118 52.8871 25.3088 52.7406 25.1567C52.594 25.0046 52.3942 24.9152 52.1831 24.9074H47.8069C47.5958 24.9152 47.396 25.0046 47.2494 25.1567C47.1029 25.3088 47.021 25.5118 47.021 25.723C47.021 25.9342 47.1029 26.1372 47.2494 26.2893C47.396 26.4414 47.5958 26.5308 47.8069 26.5387ZM47.8069 28.8955H52.1831C52.3942 28.8877 52.594 28.7983 52.7406 28.6462C52.8871 28.4941 52.969 28.2911 52.969 28.0799C52.969 27.8687 52.8871 27.6657 52.7406 27.5136C52.594 27.3615 52.3942 27.2721 52.1831 27.2643H47.8069C47.5958 27.2721 47.396 27.3615 47.2494 27.5136C47.1029 27.6657 47.021 27.8687 47.021 28.0799C47.021 28.2911 47.1029 28.4941 47.2494 28.6462C47.396 28.7983 47.5958 28.8877 47.8069 28.8955ZM47.8069 31.2524H52.1831C52.3942 31.2446 52.594 31.1552 52.7406 31.0031C52.8871 30.851 52.969 30.648 52.969 30.4368C52.969 30.2256 52.8871 30.0226 52.7406 29.8705C52.594 29.7184 52.3942 29.629 52.1831 29.6212H47.8069C47.5958 29.629 47.396 29.7184 47.2494 29.8705C47.1029 30.0226 47.021 30.2256 47.021 30.4368C47.021 30.648 47.1029 30.851 47.2494 31.0031C47.396 31.1552 47.5958 31.2446 47.8069 31.2524Z" fill="white"/>
<path d="M53.4544 33.0864H45.8044V20.4245C45.8044 19.1307 44.7469 18.0732 43.4532 18.0732H28.9069C27.6132 18.0732 26.5669 19.1251 26.5669 20.4245V30.5326H18.8157C18.6046 30.5405 18.4048 30.6298 18.2582 30.7819C18.1117 30.934 18.0298 31.137 18.0298 31.3482C18.0298 31.5595 18.1117 31.7625 18.2582 31.9146C18.4048 32.0667 18.6046 32.156 18.8157 32.1639H26.5669V51.5814C26.5669 52.8751 27.6188 53.927 28.9069 53.927H43.4476C44.7469 53.927 45.7988 52.8751 45.7988 51.5814V38.9139H53.4544C53.7526 38.9139 54 38.672 54 38.3682V33.6207C53.9993 33.5498 53.9846 33.4798 53.9568 33.4145C53.929 33.3493 53.8886 33.2902 53.8379 33.2405C53.7873 33.1909 53.7273 33.1518 53.6615 33.1253C53.5957 33.0989 53.5253 33.0856 53.4544 33.0864ZM34.9538 20.1489H37.4063C37.7101 20.1489 37.9519 20.3907 37.9519 20.6945C37.9519 20.9982 37.7101 21.2401 37.4063 21.2401H34.9538C34.8091 21.2401 34.6703 21.1826 34.568 21.0803C34.4657 20.978 34.4082 20.8392 34.4082 20.6945C34.4082 20.3964 34.6557 20.1489 34.9538 20.1489ZM36.7594 51.8514H35.6063C35.3026 51.8514 35.0607 51.6095 35.0607 51.3057C35.0607 51.002 35.3026 50.7601 35.6063 50.7601H36.7594C36.9041 50.7601 37.0429 50.8176 37.1452 50.9199C37.2476 51.0223 37.3051 51.161 37.3051 51.3057C37.3051 51.4505 37.2476 51.5892 37.1452 51.6916C37.0429 51.7939 36.9041 51.8514 36.7594 51.8514ZM44.1732 48.707H28.1982V32.1639H40.9388C41.1499 32.156 41.3497 32.0667 41.4963 31.9146C41.6428 31.7625 41.7247 31.5595 41.7247 31.3482C41.7247 31.137 41.6428 30.934 41.4963 30.7819C41.3497 30.6298 41.1499 30.5405 40.9388 30.5326H28.1926V23.3326H44.1676V33.0864H32.8051C32.6603 33.0864 32.5216 33.1439 32.4192 33.2462C32.3169 33.3485 32.2594 33.4873 32.2594 33.632V38.3795C32.2594 38.6776 32.5013 38.9251 32.8051 38.9251H44.1732V48.707ZM43.9651 36.5457H34.7457C34.601 36.5457 34.4622 36.4883 34.3599 36.3859C34.2575 36.2836 34.2001 36.1448 34.2001 36.0001C34.2001 35.8554 34.2575 35.7166 34.3599 35.6143C34.4622 35.512 34.601 35.4545 34.7457 35.4545H43.9651C44.1098 35.4545 44.2485 35.512 44.3509 35.6143C44.4532 35.7166 44.5107 35.8554 44.5107 36.0001C44.5107 36.1448 44.4532 36.2836 44.3509 36.3859C44.2485 36.4883 44.1098 36.5457 43.9651 36.5457ZM51.1201 36.5457H45.9732C45.8285 36.5457 45.6897 36.4883 45.5874 36.3859C45.485 36.2836 45.4276 36.1448 45.4276 36.0001C45.4276 35.8554 45.485 35.7166 45.5874 35.6143C45.6897 35.512 45.8285 35.4545 45.9732 35.4545H51.1201C51.4182 35.4545 51.6657 35.6964 51.6657 36.0001C51.66 36.3039 51.4182 36.5457 51.1201 36.5457Z" fill="white"/>
<path d="M18.8157 29.4525H24.5307C24.8288 29.4525 25.0763 29.2106 25.0763 28.9069V23.1975C25.0763 23.0528 25.0188 22.914 24.9165 22.8117C24.8142 22.7093 24.6754 22.6519 24.5307 22.6519H18.8157C18.5119 22.6519 18.27 22.8937 18.27 23.1975V28.9125C18.2757 29.205 18.5119 29.4525 18.8157 29.4525ZM20.5594 25.5037H21.1275V24.9356C21.1275 24.7909 21.185 24.6521 21.2873 24.5498C21.3897 24.4475 21.5285 24.39 21.6732 24.39C21.8179 24.39 21.9567 24.4475 22.059 24.5498C22.1613 24.6521 22.2188 24.7909 22.2188 24.9356V25.5037H22.7869C23.0907 25.5037 23.3325 25.7456 23.3325 26.0494C23.3325 26.3531 23.0907 26.595 22.7869 26.595H22.2132V27.1687C22.2132 27.3134 22.1557 27.4522 22.0534 27.5545C21.951 27.6569 21.8122 27.7144 21.6675 27.7144C21.5228 27.7144 21.384 27.6569 21.2817 27.5545C21.1794 27.4522 21.1219 27.3134 21.1219 27.1687V26.595H20.5594C20.4147 26.595 20.2759 26.5375 20.1736 26.4352C20.0713 26.3328 20.0138 26.1941 20.0138 26.0494C20.0138 25.9046 20.0713 25.7659 20.1736 25.6635C20.2759 25.5612 20.4147 25.5037 20.5594 25.5037ZM24.6825 39.1387H18.6638C18.5921 39.1387 18.5212 39.1528 18.455 39.1803C18.3888 39.2077 18.3286 39.2479 18.278 39.2985C18.1756 39.4009 18.1182 39.5396 18.1182 39.6844V50.8894C18.1182 51.1875 18.36 51.435 18.6638 51.435H24.6825C24.9807 51.435 25.2282 51.1931 25.2282 50.8894V39.6844C25.2282 39.5396 25.1707 39.4009 25.0684 39.2985C24.966 39.1962 24.8272 39.1387 24.6825 39.1387ZM22.4832 48.33H20.8632C20.7185 48.33 20.5797 48.2725 20.4773 48.1702C20.375 48.0678 20.3175 47.9291 20.3175 47.7844C20.3175 47.6396 20.375 47.5009 20.4773 47.3985C20.5797 47.2962 20.7185 47.2387 20.8632 47.2387H22.4832C22.6279 47.2387 22.7667 47.2962 22.869 47.3985C22.9713 47.5009 23.0288 47.6396 23.0288 47.7844C23.0288 47.9291 22.9713 48.0678 22.869 48.1702C22.7667 48.2725 22.6279 48.33 22.4832 48.33ZM22.4832 45.8269H20.8632C20.7185 45.8269 20.5797 45.7694 20.4773 45.667C20.375 45.5647 20.3175 45.4259 20.3175 45.2812C20.3175 45.1365 20.375 44.9977 20.4773 44.8954C20.5797 44.7931 20.7185 44.7356 20.8632 44.7356H22.4832C22.7869 44.7356 23.0288 44.9775 23.0288 45.2812C23.0232 45.5794 22.7869 45.8269 22.4832 45.8269ZM22.4832 43.3181H20.8632C20.7185 43.3181 20.5797 43.2606 20.4773 43.1583C20.375 43.056 20.3175 42.9172 20.3175 42.7725C20.3175 42.6278 20.375 42.489 20.4773 42.3867C20.5797 42.2843 20.7185 42.2269 20.8632 42.2269H22.4832C22.7869 42.2269 23.0288 42.4687 23.0288 42.7725C23.0232 43.0819 22.7869 43.3181 22.4832 43.3181Z" fill="white"/>
<path d="M21.6732 37.6313C22.9003 37.6313 23.895 36.6365 23.895 35.4094C23.895 34.1823 22.9003 33.1875 21.6732 33.1875C20.4461 33.1875 19.4513 34.1823 19.4513 35.4094C19.4513 36.6365 20.4461 37.6313 21.6732 37.6313Z" fill="white"/>
</g>
<defs>
<clipPath id="clip0_335_697">
<rect width="36" height="36" fill="white" transform="translate(18 18)"/>
</clipPath>
</defs>
</svg>
