<svg width="30" height="30" viewBox="0 0 30 30" fill="none" xmlns="http://www.w3.org/2000/svg">
<g clip-path="url(#clip0_335_476)">
<path d="M15.4688 5.15622V3.19497C15.7815 3.08439 16.0451 2.86681 16.213 2.58068C16.3808 2.29455 16.4421 1.95829 16.386 1.63134C16.3299 1.30439 16.16 1.0078 15.9064 0.793979C15.6528 0.580162 15.3317 0.462891 15 0.462891C14.6683 0.462891 14.3472 0.580162 14.0936 0.793979C13.84 1.0078 13.6701 1.30439 13.614 1.63134C13.5579 1.95829 13.6192 2.29455 13.787 2.58068C13.9549 2.86681 14.2185 3.08439 14.5312 3.19497V5.15622H15.4688ZM6.09375 3.28122C6.09354 3.53574 6.16242 3.78556 6.29304 4.00401C6.42365 4.22247 6.61111 4.40138 6.83542 4.52167C7.05973 4.64196 7.31249 4.69911 7.56673 4.68703C7.82097 4.67495 8.06716 4.5941 8.27906 4.45309L8.90625 4.92184V7.03122H9.84375V4.68747C9.84375 4.61469 9.82681 4.54292 9.79426 4.47783C9.76172 4.41275 9.71447 4.35613 9.65625 4.31247L8.83641 3.69793C8.89692 3.50482 8.91496 3.3009 8.88928 3.10017C8.86359 2.89943 8.7948 2.70662 8.68762 2.53496C8.58043 2.3633 8.43739 2.21685 8.26831 2.10566C8.09922 1.99446 7.90808 1.92115 7.708 1.89075C7.50793 1.86035 7.30364 1.87358 7.10915 1.92954C6.91467 1.98549 6.73459 2.08284 6.58125 2.21492C6.42792 2.347 6.30496 2.51067 6.22082 2.69472C6.13667 2.87877 6.09332 3.07884 6.09375 3.28122ZM23.9062 3.28122C23.9092 3.07698 23.8677 2.87455 23.7845 2.68799C23.7013 2.50144 23.5785 2.33525 23.4245 2.20099C23.2706 2.06672 23.0893 1.96759 22.8932 1.91051C22.6971 1.85342 22.4908 1.83974 22.2889 1.87042C22.087 1.90111 21.8941 1.97541 21.7238 2.08818C21.5535 2.20094 21.4098 2.34945 21.3027 2.52338C21.1956 2.69731 21.1277 2.89248 21.1037 3.09532C21.0796 3.29816 21.1001 3.5038 21.1636 3.69793L20.3438 4.31247C20.2855 4.35613 20.2383 4.41275 20.2057 4.47783C20.1732 4.54292 20.1562 4.61469 20.1562 4.68747V7.03122H21.0938V4.92184L21.7209 4.45309C21.9328 4.5941 22.179 4.67495 22.4333 4.68703C22.6875 4.69911 22.9403 4.64196 23.1646 4.52167C23.3889 4.40138 23.5763 4.22247 23.707 4.00401C23.8376 3.78556 23.9065 3.53574 23.9062 3.28122ZM3.28125 9.37497C3.55844 9.37584 3.82962 9.29426 4.06031 9.14059L4.6875 9.60934V11.7187H5.625V9.37497C5.625 9.30219 5.60806 9.23042 5.57551 9.16533C5.54297 9.10025 5.49572 9.04363 5.4375 8.99997L4.61766 8.38543C4.70465 8.1031 4.70026 7.80051 4.60512 7.52082C4.50998 7.24112 4.32895 6.99862 4.08784 6.82789C3.84674 6.65715 3.55788 6.56692 3.26247 6.57005C2.96705 6.57318 2.68017 6.66952 2.44274 6.84532C2.20531 7.02112 2.02946 7.26741 1.94027 7.54906C1.85108 7.83071 1.85311 8.13332 1.94606 8.41375C2.03902 8.69418 2.21815 8.93809 2.45791 9.1107C2.69767 9.2833 2.98582 9.37579 3.28125 9.37497ZM25.3125 7.96872C25.3145 8.11036 25.338 8.25088 25.3823 8.38543L24.5625 8.99997C24.5043 9.04363 24.457 9.10025 24.4245 9.16533C24.3919 9.23042 24.375 9.30219 24.375 9.37497V11.7187H25.3125V9.60934L25.9397 9.14059C26.2006 9.31418 26.5119 9.39568 26.8244 9.37214C27.1368 9.34861 27.4325 9.22139 27.6644 9.01068C27.8963 8.79997 28.0512 8.51784 28.1045 8.20907C28.1578 7.90029 28.1065 7.58256 27.9586 7.3063C27.8107 7.03004 27.5749 6.81107 27.2884 6.68414C27.0019 6.55722 26.6812 6.52962 26.3772 6.60571C26.0733 6.6818 25.8034 6.85723 25.6105 7.10416C25.4177 7.35109 25.3128 7.65537 25.3125 7.96872ZM24.375 15.4687C24.375 17.9551 23.3873 20.3397 21.6291 22.0978C19.871 23.856 17.4864 24.8437 15 24.8437C12.5136 24.8437 10.129 23.856 8.37087 22.0978C6.61272 20.3397 5.625 17.9551 5.625 15.4687H0.46875V16.9218C0.46875 17.0503 0.519766 17.1734 0.610574 17.2642C0.701383 17.355 0.824546 17.4061 0.952969 17.4061H2.14922C2.2626 17.4067 2.37217 17.4471 2.45879 17.5203C2.5454 17.5934 2.60357 17.6947 2.62313 17.8064C2.82197 18.8595 3.15532 19.8827 3.615 20.8509C3.665 20.9525 3.67775 21.0685 3.65102 21.1786C3.6243 21.2886 3.55979 21.3859 3.46875 21.4532L2.49937 22.1564C2.4476 22.1936 2.4037 22.2408 2.37019 22.295C2.33669 22.3493 2.31423 22.4097 2.30413 22.4727C2.29402 22.5357 2.29646 22.6 2.31131 22.6621C2.32615 22.7241 2.35311 22.7826 2.39062 22.8342L4.09922 25.1854C4.13658 25.2369 4.18371 25.2805 4.23793 25.3138C4.29214 25.347 4.35237 25.3693 4.41519 25.3792C4.478 25.3892 4.54216 25.3867 4.604 25.3719C4.66585 25.357 4.72417 25.3302 4.77562 25.2928L5.74547 24.5897C5.83747 24.5236 5.94971 24.4919 6.06267 24.5C6.17563 24.5082 6.28217 24.5556 6.36375 24.6342C7.14365 25.3683 8.01376 26.0003 8.95312 26.5148C9.05328 26.5679 9.13161 26.6545 9.17444 26.7594C9.21728 26.8644 9.2219 26.981 9.1875 27.089L8.81719 28.2295C8.77761 28.3515 8.78811 28.4843 8.84639 28.5985C8.90467 28.7128 9.00596 28.7993 9.12797 28.8389L11.8936 29.737C12.0157 29.7764 12.1484 29.7658 12.2627 29.7074C12.3769 29.6491 12.4634 29.5478 12.503 29.4257L12.8728 28.2876C12.9085 28.1799 12.9808 28.0882 13.0772 28.0282C13.1735 27.9683 13.2878 27.944 13.4002 27.9595C14.463 28.0964 15.5389 28.0964 16.6017 27.9595C16.7141 27.944 16.8284 27.9683 16.9247 28.0282C17.021 28.0882 17.0933 28.1799 17.1291 28.2876L17.4989 29.4257C17.5386 29.5477 17.6251 29.6489 17.7393 29.7073C17.8535 29.7656 17.9862 29.7763 18.1083 29.737L20.8739 28.8389C20.9959 28.7993 21.0972 28.7128 21.1555 28.5985C21.2138 28.4843 21.2243 28.3515 21.1847 28.2295L20.8125 27.089C20.7781 26.981 20.7827 26.8644 20.8256 26.7594C20.8684 26.6545 20.9467 26.5679 21.0469 26.5148C21.987 26 22.8577 25.3675 23.6381 24.6328C23.7197 24.5542 23.8262 24.5067 23.9392 24.4986C24.0522 24.4905 24.1644 24.5222 24.2564 24.5882L25.2263 25.2914C25.2777 25.3287 25.336 25.3556 25.3979 25.3704C25.4597 25.3853 25.5239 25.3878 25.5867 25.3778C25.6495 25.3678 25.7097 25.3456 25.7639 25.3123C25.8182 25.2791 25.8653 25.2355 25.9027 25.184L27.6094 22.8342C27.6467 22.7827 27.6736 22.7244 27.6884 22.6626C27.7033 22.6007 27.7058 22.5366 27.6958 22.4737C27.6858 22.4109 27.6636 22.3507 27.6304 22.2965C27.5971 22.2423 27.5535 22.1951 27.502 22.1578L26.5327 21.4547C26.4412 21.3876 26.3762 21.2905 26.3491 21.1804C26.3219 21.0703 26.3343 20.9542 26.3841 20.8523C26.8435 19.8837 27.1766 18.86 27.375 17.8064C27.3946 17.6947 27.4527 17.5934 27.5393 17.5203C27.626 17.4471 27.7355 17.4067 27.8489 17.4061H29.0452C29.1089 17.4063 29.1721 17.394 29.231 17.3697C29.29 17.3455 29.3436 17.3099 29.3888 17.2649C29.4339 17.2199 29.4698 17.1664 29.4942 17.1076C29.5187 17.0487 29.5312 16.9856 29.5312 16.9218V15.4687H24.375Z" fill="#CD3A8C"/>
<path d="M15 23.4375C16.5761 23.4375 18.1167 22.9701 19.4272 22.0945C20.7377 21.2189 21.759 19.9744 22.3622 18.5183C22.9653 17.0622 23.1231 15.4599 22.8156 13.9141C22.5082 12.3683 21.7492 10.9484 20.6348 9.834C19.5203 8.71955 18.1004 7.9606 16.5546 7.65312C15.0088 7.34564 13.4066 7.50345 11.9505 8.10659C10.4944 8.70972 9.24984 9.7311 8.37423 11.0416C7.49861 12.352 7.03125 13.8927 7.03125 15.4688C7.03125 17.5822 7.87081 19.6091 9.36524 21.1035C10.8597 22.5979 12.8866 23.4375 15 23.4375ZM16.3748 19.3594C16.3748 19.724 16.23 20.0737 15.9722 20.3315C15.7143 20.5894 15.3646 20.7342 15 20.7342C14.6354 20.7342 14.2857 20.5894 14.0278 20.3315C13.77 20.0737 13.6252 19.724 13.6252 19.3594V19.2188H16.3748V19.3594ZM19.125 14.422H20.1562V15.3595H19.125V14.422ZM18.3145 10.913L18.9773 11.5781L18.2484 12.3052L17.5856 11.6423L18.3145 10.913ZM14.5312 9.73453H15.4688V10.7658H14.5312V9.73453ZM14.9062 11.7802C15.6102 11.7605 16.2999 11.9817 16.8612 12.407C17.4225 12.8324 17.8218 13.4366 17.9932 14.1197C18.1647 14.8027 18.0979 15.5239 17.804 16.1639C17.5101 16.8039 17.0066 17.3244 16.3767 17.6395V18.2813H13.6252V17.6405C13.1109 17.3858 12.6777 16.993 12.3741 16.506C12.0705 16.019 11.9085 15.4571 11.9062 14.8833C11.9118 14.0797 12.2266 13.309 12.7852 12.7313C13.3437 12.1535 14.1033 11.8129 14.9062 11.7802ZM11.6873 10.913L12.4163 11.6423L11.7516 12.3052L11.0227 11.5781L11.6873 10.913ZM9.84375 14.422H10.875V15.3595H9.84375V14.422Z" fill="#CD3A8C"/>
</g>
<defs>
<clipPath id="clip0_335_476">
<rect width="30" height="30" fill="white"/>
</clipPath>
</defs>
</svg>
