<svg width="28" height="30" viewBox="0 0 28 30" fill="none" xmlns="http://www.w3.org/2000/svg">
<path d="M3.375 4.375H2.125C1.79348 4.375 1.47554 4.5067 1.24112 4.74112C1.0067 4.97554 0.875 5.29348 0.875 5.625V19.375H3.375V4.375ZM25.875 4.375H24.625V19.375H27.125V5.625C27.125 5.29348 26.9933 4.97554 26.7589 4.74112C26.5245 4.5067 26.2065 4.375 25.875 4.375ZM0.875 23.125C0.875 23.4565 1.0067 23.7745 1.24112 24.0089C1.47554 24.2433 1.79348 24.375 2.125 24.375H25.875C26.2065 24.375 26.5245 24.2433 26.7589 24.0089C26.9933 23.7745 27.125 23.4565 27.125 23.125V20.625H0.875V23.125ZM14 21.875C14.1658 21.875 14.3247 21.9408 14.4419 22.0581C14.5592 22.1753 14.625 22.3342 14.625 22.5C14.625 22.6658 14.5592 22.8247 14.4419 22.9419C14.3247 23.0592 14.1658 23.125 14 23.125C13.8342 23.125 13.6753 23.0592 13.5581 22.9419C13.4408 22.8247 13.375 22.6658 13.375 22.5C13.375 22.3342 13.4408 22.1753 13.5581 22.0581C13.6753 21.9408 13.8342 21.875 14 21.875ZM19.625 28.125H17.125V25.625H10.875V28.125H8.375C8.20924 28.125 8.05027 28.1908 7.93306 28.3081C7.81585 28.4253 7.75 28.5842 7.75 28.75C7.75 28.9158 7.81585 29.0747 7.93306 29.1919C8.05027 29.3092 8.20924 29.375 8.375 29.375H19.625C19.7908 29.375 19.9497 29.3092 20.0669 29.1919C20.1842 29.0747 20.25 28.9158 20.25 28.75C20.25 28.5842 20.1842 28.4253 20.0669 28.3081C19.9497 28.1908 19.7908 28.125 19.625 28.125ZM23.375 1.875C23.375 1.54348 23.2433 1.22554 23.0089 0.991117C22.7745 0.756696 22.4565 0.625 22.125 0.625H5.875C5.54348 0.625 5.22554 0.756696 4.99112 0.991117C4.7567 1.22554 4.625 1.54348 4.625 1.875V4.375H23.375V1.875ZM7.125 3.125C6.95924 3.125 6.80027 3.05915 6.68306 2.94194C6.56585 2.82473 6.5 2.66576 6.5 2.5C6.5 2.33424 6.56585 2.17527 6.68306 2.05806C6.80027 1.94085 6.95924 1.875 7.125 1.875C7.29076 1.875 7.44973 1.94085 7.56694 2.05806C7.68415 2.17527 7.75 2.33424 7.75 2.5C7.75 2.66576 7.68415 2.82473 7.56694 2.94194C7.44973 3.05915 7.29076 3.125 7.125 3.125ZM9.625 3.125C9.45924 3.125 9.30027 3.05915 9.18306 2.94194C9.06585 2.82473 9 2.66576 9 2.5C9 2.33424 9.06585 2.17527 9.18306 2.05806C9.30027 1.94085 9.45924 1.875 9.625 1.875C9.79076 1.875 9.94973 1.94085 10.0669 2.05806C10.1842 2.17527 10.25 2.33424 10.25 2.5C10.25 2.66576 10.1842 2.82473 10.0669 2.94194C9.94973 3.05915 9.79076 3.125 9.625 3.125ZM12.125 3.125C11.9592 3.125 11.8003 3.05915 11.6831 2.94194C11.5658 2.82473 11.5 2.66576 11.5 2.5C11.5 2.33424 11.5658 2.17527 11.6831 2.05806C11.8003 1.94085 11.9592 1.875 12.125 1.875C12.2908 1.875 12.4497 1.94085 12.5669 2.05806C12.6842 2.17527 12.75 2.33424 12.75 2.5C12.75 2.66576 12.6842 2.82473 12.5669 2.94194C12.4497 3.05915 12.2908 3.125 12.125 3.125ZM23.375 5.625H4.625V19.375H23.375V5.625ZM11.9437 14.5563C12.0319 14.6437 12.092 14.7554 12.1164 14.8771C12.1408 14.9988 12.1285 15.125 12.0809 15.2397C12.0333 15.3543 11.9526 15.4522 11.8491 15.5208C11.7457 15.5895 11.6241 15.6257 11.5 15.625C11.1313 15.625 11.2188 15.625 8.55625 12.9437C8.49767 12.8856 8.45117 12.8165 8.41944 12.7404C8.38771 12.6642 8.37138 12.5825 8.37138 12.5C8.37138 12.4175 8.38771 12.3358 8.41944 12.2596C8.45117 12.1835 8.49767 12.1144 8.55625 12.0563L11.0563 9.55625C11.1739 9.43856 11.3336 9.37244 11.5 9.37244C11.6664 9.37244 11.8261 9.43856 11.9437 9.55625C12.0614 9.67394 12.1276 9.83356 12.1276 10C12.1276 10.1664 12.0614 10.3261 11.9437 10.4437L9.88125 12.5L11.9437 14.5563ZM15.25 9.5L14 15.75C13.9668 15.9158 13.8692 16.0616 13.7286 16.1553C13.5879 16.2491 13.4158 16.2832 13.25 16.25C13.0842 16.2168 12.9384 16.1192 12.8447 15.9786C12.7509 15.8379 12.7168 15.6658 12.75 15.5L14 9.25C14.0332 9.08424 14.1308 8.93844 14.2714 8.84467C14.4121 8.7509 14.5842 8.71685 14.75 8.75C14.9158 8.78315 15.0616 8.88079 15.1553 9.02145C15.2491 9.1621 15.2832 9.33424 15.25 9.5ZM19.4562 12.9437C16.7562 15.625 16.8625 15.625 16.5 15.625C16.3759 15.6257 16.2543 15.5895 16.1509 15.5208C16.0474 15.4522 15.9667 15.3543 15.9191 15.2397C15.8715 15.125 15.8592 14.9988 15.8836 14.8771C15.908 14.7554 15.9681 14.6437 16.0563 14.5563L18.1187 12.5L16.0563 10.4437C15.9386 10.3261 15.8724 10.1664 15.8724 10C15.8724 9.83356 15.9386 9.67394 16.0563 9.55625C16.1739 9.43856 16.3336 9.37244 16.5 9.37244C16.6664 9.37244 16.8261 9.43856 16.9437 9.55625L19.4437 12.0563C19.5023 12.1144 19.5488 12.1835 19.5806 12.2596C19.6123 12.3358 19.6286 12.4175 19.6286 12.5C19.6286 12.5825 19.6123 12.6642 19.5806 12.7404C19.5488 12.8165 19.5023 12.8856 19.4437 12.9437H19.4562Z" fill="#31AEAE"/>
</svg>
