<svg width="24" height="24" viewBox="0 0 24 24" fill="none" xmlns="http://www.w3.org/2000/svg">
<rect width="24" height="24" rx="12" fill="#9E4CC9"/>
<g clip-path="url(#clip0_335_740)">
<path d="M5.14375 12.6286C5.25804 12.3429 5.37232 12.1143 5.54375 11.8858C6.17232 11.2 7.2009 11.1429 7.88661 11.7715C8.4009 12.2286 8.91518 12.7429 9.37232 13.2572C9.65804 13.5429 10.0009 13.8858 10.3438 14.2286C10.4009 14.1715 10.4009 14.1143 10.458 14.1143C12.2866 12.2858 14.1152 10.4572 15.9438 8.62862C16.458 8.11434 17.0295 7.94291 17.7152 8.17148C18.8009 8.57148 19.2009 9.94291 18.4009 10.8572C18.3438 10.9143 18.3438 10.9715 18.2866 10.9715C16.058 13.1429 13.8295 15.4286 11.6009 17.6572C11.0295 18.2286 10.1723 18.3429 9.48661 17.9429C9.37232 17.8858 9.25804 17.7715 9.14375 17.6572C8.0009 16.5143 6.85804 15.3715 5.71518 14.2286C5.48661 14 5.31518 13.6572 5.2009 13.3715C5.14375 13.0858 5.14375 12.8572 5.14375 12.6286Z" fill="white"/>
<path d="M9.42947 8.00012L10.2243 9.20533L11.4295 10.0001L10.2243 10.7949L9.42947 12.0001L8.63469 10.7949L7.42947 10.0001L8.63469 9.20533L9.42947 8.00012Z" fill="white"/>
<path d="M13.1438 5.71436L13.825 6.74739L14.858 7.42864L13.825 8.10989L13.1438 9.14293L12.4625 8.10989L11.4295 7.42864L12.4625 6.74739L13.1438 5.71436Z" fill="white"/>
</g>
<defs>
<clipPath id="clip0_335_740">
<rect width="13.7143" height="13.7143" fill="white" transform="translate(5.14375 5.14294)"/>
</clipPath>
</defs>
</svg>
